<mxfile host="app.diagrams.net" modified="2023-11-07T02:21:56.682Z" agent="Mozilla/5.0 (Windows NT 10.0; Win64; x64) AppleWebKit/537.36 (KHTML, like Gecko) Chrome/119.0.0.0 Safari/537.36" etag="0JcISp9Omxo5QHWEmAPK" version="22.0.8" type="device">
  <diagram id="C5RBs43oDa-KdzZeNtuy" name="Page-1">
    <mxGraphModel dx="2607" dy="2624" grid="1" gridSize="10" guides="1" tooltips="1" connect="1" arrows="1" fold="1" page="1" pageScale="1" pageWidth="827" pageHeight="1169" math="0" shadow="0">
      <root>
        <mxCell id="WIyWlLk6GJQsqaUBKTNV-0" />
        <mxCell id="WIyWlLk6GJQsqaUBKTNV-1" parent="WIyWlLk6GJQsqaUBKTNV-0" />
        <mxCell id="PmK2E9ObwFfIMZQdWyZE-0" style="edgeStyle=orthogonalEdgeStyle;rounded=0;orthogonalLoop=1;jettySize=auto;html=1;exitX=0.5;exitY=1;exitDx=0;exitDy=0;entryX=0.5;entryY=0;entryDx=0;entryDy=0;align=center;verticalAlign=middle;horizontal=1;endArrow=none;endFill=0;" parent="WIyWlLk6GJQsqaUBKTNV-1" target="PmK2E9ObwFfIMZQdWyZE-21" edge="1">
          <mxGeometry relative="1" as="geometry">
            <mxPoint x="368.8800000000001" y="-400" as="sourcePoint" />
          </mxGeometry>
        </mxCell>
        <mxCell id="PmK2E9ObwFfIMZQdWyZE-1" style="edgeStyle=orthogonalEdgeStyle;rounded=0;orthogonalLoop=1;jettySize=auto;html=1;exitX=0.5;exitY=1;exitDx=0;exitDy=0;entryX=0.5;entryY=0;entryDx=0;entryDy=0;endArrow=none;endFill=0;" parent="WIyWlLk6GJQsqaUBKTNV-1" source="PmK2E9ObwFfIMZQdWyZE-2" target="PmK2E9ObwFfIMZQdWyZE-22" edge="1">
          <mxGeometry relative="1" as="geometry" />
        </mxCell>
        <mxCell id="PmK2E9ObwFfIMZQdWyZE-2" value="int i=49;i&amp;gt;=0;i--" style="swimlane;horizontal=0;whiteSpace=wrap;html=1;rounded=0;" parent="WIyWlLk6GJQsqaUBKTNV-1" vertex="1">
          <mxGeometry x="880" y="170" width="270" height="220" as="geometry" />
        </mxCell>
        <mxCell id="PmK2E9ObwFfIMZQdWyZE-3" value="ciudad_origen,ciudad_destino, costo,distancia" style="shape=trapezoid;perimeter=trapezoidPerimeter;whiteSpace=wrap;html=1;fixedSize=1;direction=west;rounded=0;" parent="PmK2E9ObwFfIMZQdWyZE-2" vertex="1">
          <mxGeometry x="50" y="10" width="200" height="50" as="geometry" />
        </mxCell>
        <mxCell id="PmK2E9ObwFfIMZQdWyZE-4" value="v_origen[i] = ciudad_origen" style="whiteSpace=wrap;html=1;rounded=0;" parent="PmK2E9ObwFfIMZQdWyZE-2" vertex="1">
          <mxGeometry x="90" y="70" width="120" height="30" as="geometry" />
        </mxCell>
        <mxCell id="PmK2E9ObwFfIMZQdWyZE-5" value="v_destino[i] = ciudad_ destino" style="whiteSpace=wrap;html=1;rounded=0;" parent="PmK2E9ObwFfIMZQdWyZE-2" vertex="1">
          <mxGeometry x="90" y="110" width="120" height="30" as="geometry" />
        </mxCell>
        <mxCell id="PmK2E9ObwFfIMZQdWyZE-6" value="v_costo[i] = costo" style="whiteSpace=wrap;html=1;rounded=0;" parent="PmK2E9ObwFfIMZQdWyZE-2" vertex="1">
          <mxGeometry x="90" y="150" width="120" height="20" as="geometry" />
        </mxCell>
        <mxCell id="PmK2E9ObwFfIMZQdWyZE-7" value="v_distancia[i] = distancia" style="whiteSpace=wrap;html=1;rounded=0;" parent="PmK2E9ObwFfIMZQdWyZE-2" vertex="1">
          <mxGeometry x="90" y="180" width="120" height="30" as="geometry" />
        </mxCell>
        <mxCell id="PmK2E9ObwFfIMZQdWyZE-8" value="dia != 0" style="swimlane;whiteSpace=wrap;html=1;rounded=0;" parent="WIyWlLk6GJQsqaUBKTNV-1" vertex="1">
          <mxGeometry x="755" y="690" width="520" height="880" as="geometry" />
        </mxCell>
        <mxCell id="PmK2E9ObwFfIMZQdWyZE-9" value="nro_cliente, cod_vuelo,dia,mes, cant_pasajes,nro_vendedor&amp;nbsp;" style="shape=trapezoid;perimeter=trapezoidPerimeter;whiteSpace=wrap;html=1;fixedSize=1;direction=west;rounded=0;" parent="PmK2E9ObwFfIMZQdWyZE-8" vertex="1">
          <mxGeometry x="168.82999999999998" y="810" width="182.37" height="60" as="geometry" />
        </mxCell>
        <mxCell id="PmK2E9ObwFfIMZQdWyZE-10" style="edgeStyle=orthogonalEdgeStyle;rounded=0;orthogonalLoop=1;jettySize=auto;html=1;exitX=0.5;exitY=1;exitDx=0;exitDy=0;entryX=0.5;entryY=0;entryDx=0;entryDy=0;endArrow=none;endFill=0;" parent="PmK2E9ObwFfIMZQdWyZE-8" source="PmK2E9ObwFfIMZQdWyZE-11" target="PmK2E9ObwFfIMZQdWyZE-14" edge="1">
          <mxGeometry relative="1" as="geometry" />
        </mxCell>
        <mxCell id="PmK2E9ObwFfIMZQdWyZE-11" value="millasPTA[nro_cliente - 1] += v_distancia[cod_vuelo - 1] * cant_pasajes" style="whiteSpace=wrap;html=1;" parent="PmK2E9ObwFfIMZQdWyZE-8" vertex="1">
          <mxGeometry x="168.81999999999994" y="50" width="182.38" height="40" as="geometry" />
        </mxCell>
        <mxCell id="PmK2E9ObwFfIMZQdWyZE-12" value="" style="group" parent="PmK2E9ObwFfIMZQdWyZE-8" vertex="1" connectable="0">
          <mxGeometry x="75" y="110" width="370" height="80" as="geometry" />
        </mxCell>
        <mxCell id="PmK2E9ObwFfIMZQdWyZE-13" value="" style="group;shadow=1;" parent="PmK2E9ObwFfIMZQdWyZE-12" vertex="1" connectable="0">
          <mxGeometry width="369.99999999999994" height="80" as="geometry" />
        </mxCell>
        <mxCell id="PmK2E9ObwFfIMZQdWyZE-14" value="" style="shape=hexagon;perimeter=hexagonPerimeter2;whiteSpace=wrap;html=1;fixedSize=1;size=20;" parent="PmK2E9ObwFfIMZQdWyZE-13" vertex="1">
          <mxGeometry width="369.99999999999994" height="80" as="geometry" />
        </mxCell>
        <mxCell id="PmK2E9ObwFfIMZQdWyZE-15" value="" style="endArrow=none;html=1;rounded=0;entryX=1;entryY=0.5;entryDx=0;entryDy=0;" parent="PmK2E9ObwFfIMZQdWyZE-13" target="PmK2E9ObwFfIMZQdWyZE-14" edge="1">
          <mxGeometry width="50" height="50" relative="1" as="geometry">
            <mxPoint y="39.860000000000014" as="sourcePoint" />
            <mxPoint x="246.66666666666663" y="39.860000000000014" as="targetPoint" />
          </mxGeometry>
        </mxCell>
        <mxCell id="PmK2E9ObwFfIMZQdWyZE-16" value="cant_pasajes,&amp;nbsp; nro_vendedor, mes" style="text;strokeColor=none;align=center;fillColor=none;html=1;verticalAlign=middle;whiteSpace=wrap;rounded=0;fontSize=12;fontFamily=Helvetica;fontColor=default;" parent="PmK2E9ObwFfIMZQdWyZE-13" vertex="1">
          <mxGeometry x="0.002121212121210192" y="40" width="141.83333333333334" height="30" as="geometry" />
        </mxCell>
        <mxCell id="PmK2E9ObwFfIMZQdWyZE-17" value="fPuntoB" style="text;strokeColor=none;align=center;fillColor=none;html=1;verticalAlign=middle;whiteSpace=wrap;rounded=0;fontSize=12;fontFamily=Helvetica;fontColor=default;" parent="PmK2E9ObwFfIMZQdWyZE-13" vertex="1">
          <mxGeometry x="92.49999999999999" y="10" width="184.99999999999997" height="10" as="geometry" />
        </mxCell>
        <mxCell id="PmK2E9ObwFfIMZQdWyZE-18" value="v_max, int vendedor_max" style="text;strokeColor=none;align=center;fillColor=none;html=1;verticalAlign=middle;whiteSpace=wrap;rounded=0;" parent="PmK2E9ObwFfIMZQdWyZE-13" vertex="1">
          <mxGeometry x="203.5" y="50" width="74" height="30" as="geometry" />
        </mxCell>
        <mxCell id="PmK2E9ObwFfIMZQdWyZE-19" value="" style="endArrow=none;html=1;rounded=0;fontFamily=Helvetica;fontSize=12;fontColor=default;exitX=0.375;exitY=1;exitDx=0;exitDy=0;movable=0;resizable=0;rotatable=0;deletable=0;editable=0;locked=1;connectable=0;" parent="PmK2E9ObwFfIMZQdWyZE-12" source="PmK2E9ObwFfIMZQdWyZE-14" edge="1">
          <mxGeometry width="50" height="50" relative="1" as="geometry">
            <mxPoint x="61.66666666666666" y="100" as="sourcePoint" />
            <mxPoint x="138.75" y="40" as="targetPoint" />
          </mxGeometry>
        </mxCell>
        <mxCell id="PmK2E9ObwFfIMZQdWyZE-452" value="" style="group" parent="PmK2E9ObwFfIMZQdWyZE-8" vertex="1" connectable="0">
          <mxGeometry x="65.01" y="420" width="390" height="80" as="geometry" />
        </mxCell>
        <mxCell id="PmK2E9ObwFfIMZQdWyZE-453" value="" style="group;shadow=1;" parent="PmK2E9ObwFfIMZQdWyZE-452" vertex="1" connectable="0">
          <mxGeometry width="390" height="80" as="geometry" />
        </mxCell>
        <mxCell id="PmK2E9ObwFfIMZQdWyZE-454" value="" style="shape=hexagon;perimeter=hexagonPerimeter2;whiteSpace=wrap;html=1;fixedSize=1;size=20;" parent="PmK2E9ObwFfIMZQdWyZE-453" vertex="1">
          <mxGeometry width="390" height="80" as="geometry" />
        </mxCell>
        <mxCell id="PmK2E9ObwFfIMZQdWyZE-455" value="" style="endArrow=none;html=1;rounded=0;entryX=1;entryY=0.5;entryDx=0;entryDy=0;" parent="PmK2E9ObwFfIMZQdWyZE-453" target="PmK2E9ObwFfIMZQdWyZE-454" edge="1">
          <mxGeometry width="50" height="50" relative="1" as="geometry">
            <mxPoint y="39.860000000000014" as="sourcePoint" />
            <mxPoint x="260" y="39.860000000000014" as="targetPoint" />
          </mxGeometry>
        </mxCell>
        <mxCell id="PmK2E9ObwFfIMZQdWyZE-456" value="cant_pasajes,&amp;nbsp; cod_vuelo" style="text;strokeColor=none;align=center;fillColor=none;html=1;verticalAlign=middle;whiteSpace=wrap;rounded=0;fontSize=12;fontFamily=Helvetica;fontColor=default;" parent="PmK2E9ObwFfIMZQdWyZE-453" vertex="1">
          <mxGeometry y="40" width="130" height="30" as="geometry" />
        </mxCell>
        <mxCell id="PmK2E9ObwFfIMZQdWyZE-457" value="v_costo" style="text;strokeColor=none;align=center;fillColor=none;html=1;verticalAlign=middle;whiteSpace=wrap;rounded=0;fontSize=12;fontFamily=Helvetica;fontColor=default;" parent="PmK2E9ObwFfIMZQdWyZE-453" vertex="1">
          <mxGeometry x="162.5" y="40" width="130" height="30" as="geometry" />
        </mxCell>
        <mxCell id="PmK2E9ObwFfIMZQdWyZE-458" value="calcularImporteVenta" style="text;strokeColor=none;align=center;fillColor=none;html=1;verticalAlign=middle;whiteSpace=wrap;rounded=0;fontSize=12;fontFamily=Helvetica;fontColor=default;" parent="PmK2E9ObwFfIMZQdWyZE-453" vertex="1">
          <mxGeometry x="86.25000000000001" y="10" width="217.5" height="10" as="geometry" />
        </mxCell>
        <mxCell id="PmK2E9ObwFfIMZQdWyZE-459" value="" style="endArrow=none;html=1;rounded=0;fontFamily=Helvetica;fontSize=12;fontColor=default;exitX=0.375;exitY=1;exitDx=0;exitDy=0;movable=0;resizable=0;rotatable=0;deletable=0;editable=0;locked=1;connectable=0;" parent="PmK2E9ObwFfIMZQdWyZE-452" source="PmK2E9ObwFfIMZQdWyZE-454" edge="1">
          <mxGeometry width="50" height="50" relative="1" as="geometry">
            <mxPoint x="65" y="100" as="sourcePoint" />
            <mxPoint x="146.25" y="40" as="targetPoint" />
          </mxGeometry>
        </mxCell>
        <mxCell id="PmK2E9ObwFfIMZQdWyZE-254" value="" style="group" parent="PmK2E9ObwFfIMZQdWyZE-8" vertex="1" connectable="0">
          <mxGeometry x="35" y="320" width="440" height="80" as="geometry" />
        </mxCell>
        <mxCell id="PmK2E9ObwFfIMZQdWyZE-255" value="" style="group;shadow=1;" parent="PmK2E9ObwFfIMZQdWyZE-254" vertex="1" connectable="0">
          <mxGeometry width="440" height="80" as="geometry" />
        </mxCell>
        <mxCell id="PmK2E9ObwFfIMZQdWyZE-256" value="" style="shape=hexagon;perimeter=hexagonPerimeter2;whiteSpace=wrap;html=1;fixedSize=1;size=20;" parent="PmK2E9ObwFfIMZQdWyZE-255" vertex="1">
          <mxGeometry width="440" height="80" as="geometry" />
        </mxCell>
        <mxCell id="PmK2E9ObwFfIMZQdWyZE-257" value="" style="endArrow=none;html=1;rounded=0;entryX=1;entryY=0.5;entryDx=0;entryDy=0;" parent="PmK2E9ObwFfIMZQdWyZE-255" target="PmK2E9ObwFfIMZQdWyZE-256" edge="1">
          <mxGeometry width="50" height="50" relative="1" as="geometry">
            <mxPoint y="39.860000000000014" as="sourcePoint" />
            <mxPoint x="293.33333333333337" y="39.860000000000014" as="targetPoint" />
          </mxGeometry>
        </mxCell>
        <mxCell id="PmK2E9ObwFfIMZQdWyZE-258" value="nro_cliente,&amp;nbsp; cant_pasajes, cod_vuelo, nro_vendedor" style="text;strokeColor=none;align=center;fillColor=none;html=1;verticalAlign=middle;whiteSpace=wrap;rounded=0;fontSize=12;fontFamily=Helvetica;fontColor=default;" parent="PmK2E9ObwFfIMZQdWyZE-255" vertex="1">
          <mxGeometry y="40" width="172.59804878048783" height="30" as="geometry" />
        </mxCell>
        <mxCell id="PmK2E9ObwFfIMZQdWyZE-259" value="v_costo,vendedorPuntoD, v_ventaMax&lt;br&gt;&amp;nbsp;&amp;nbsp;" style="text;strokeColor=none;align=center;fillColor=none;html=1;verticalAlign=middle;whiteSpace=wrap;rounded=0;fontSize=12;fontFamily=Helvetica;fontColor=default;" parent="PmK2E9ObwFfIMZQdWyZE-255" vertex="1">
          <mxGeometry x="183.3276923076923" y="50" width="205.90307692307698" height="30" as="geometry" />
        </mxCell>
        <mxCell id="PmK2E9ObwFfIMZQdWyZE-260" value="vendedorPuntoD" style="text;strokeColor=none;align=center;fillColor=none;html=1;verticalAlign=middle;whiteSpace=wrap;rounded=0;fontSize=12;fontFamily=Helvetica;fontColor=default;" parent="PmK2E9ObwFfIMZQdWyZE-255" vertex="1">
          <mxGeometry x="110" y="10" width="220" height="10" as="geometry" />
        </mxCell>
        <mxCell id="PmK2E9ObwFfIMZQdWyZE-261" value="" style="endArrow=none;html=1;rounded=0;fontFamily=Helvetica;fontSize=12;fontColor=default;exitX=0.375;exitY=1;exitDx=0;exitDy=0;movable=0;resizable=0;rotatable=0;deletable=0;editable=0;locked=1;connectable=0;" parent="PmK2E9ObwFfIMZQdWyZE-254" source="PmK2E9ObwFfIMZQdWyZE-256" edge="1">
          <mxGeometry width="50" height="50" relative="1" as="geometry">
            <mxPoint x="73.33333333333334" y="100" as="sourcePoint" />
            <mxPoint x="165" y="40" as="targetPoint" />
          </mxGeometry>
        </mxCell>
        <mxCell id="PmK2E9ObwFfIMZQdWyZE-445" value="" style="group" parent="PmK2E9ObwFfIMZQdWyZE-8" vertex="1" connectable="0">
          <mxGeometry x="15" y="690" width="399.9999999999999" height="80" as="geometry" />
        </mxCell>
        <mxCell id="PmK2E9ObwFfIMZQdWyZE-446" value="" style="shape=hexagon;perimeter=hexagonPerimeter2;whiteSpace=wrap;html=1;fixedSize=1;size=20;movable=1;resizable=1;rotatable=1;deletable=1;editable=1;locked=0;connectable=1;container=0;" parent="PmK2E9ObwFfIMZQdWyZE-445" vertex="1">
          <mxGeometry width="400" height="80" as="geometry" />
        </mxCell>
        <mxCell id="PmK2E9ObwFfIMZQdWyZE-447" value="" style="endArrow=none;html=1;rounded=0;entryX=1;entryY=0.5;entryDx=0;entryDy=0;movable=1;resizable=1;rotatable=1;deletable=1;editable=1;locked=0;connectable=1;" parent="PmK2E9ObwFfIMZQdWyZE-445" target="PmK2E9ObwFfIMZQdWyZE-446" edge="1">
          <mxGeometry width="50" height="50" relative="1" as="geometry">
            <mxPoint y="39.85999999999967" as="sourcePoint" />
            <mxPoint x="266.66666666666663" y="39.85999999999967" as="targetPoint" />
          </mxGeometry>
        </mxCell>
        <mxCell id="PmK2E9ObwFfIMZQdWyZE-448" value="importe,&amp;nbsp; mes" style="text;strokeColor=none;align=center;fillColor=none;html=1;verticalAlign=middle;whiteSpace=wrap;rounded=0;fontSize=12;fontFamily=Helvetica;fontColor=default;movable=1;resizable=1;rotatable=1;deletable=1;editable=1;locked=0;connectable=1;container=0;" parent="PmK2E9ObwFfIMZQdWyZE-445" vertex="1">
          <mxGeometry x="9.999999999999998" y="40" width="101.15" height="30" as="geometry" />
        </mxCell>
        <mxCell id="PmK2E9ObwFfIMZQdWyZE-449" value="&amp;nbsp; v_bimestre" style="text;strokeColor=none;align=center;fillColor=none;html=1;verticalAlign=middle;whiteSpace=wrap;rounded=0;fontSize=12;fontFamily=Helvetica;fontColor=default;movable=1;resizable=1;rotatable=1;deletable=1;editable=1;locked=0;connectable=1;container=0;" parent="PmK2E9ObwFfIMZQdWyZE-445" vertex="1">
          <mxGeometry x="147.8215384615385" y="50" width="187.18461538461537" height="30" as="geometry" />
        </mxCell>
        <mxCell id="PmK2E9ObwFfIMZQdWyZE-450" value="calcularRecaBimestral" style="text;strokeColor=none;align=center;fillColor=none;html=1;verticalAlign=middle;whiteSpace=wrap;rounded=0;fontSize=12;fontFamily=Helvetica;fontColor=default;movable=1;resizable=1;rotatable=1;deletable=1;editable=1;locked=0;connectable=1;container=0;" parent="PmK2E9ObwFfIMZQdWyZE-445" vertex="1">
          <mxGeometry x="81.16" y="10" width="200" height="10" as="geometry" />
        </mxCell>
        <mxCell id="PmK2E9ObwFfIMZQdWyZE-451" value="" style="endArrow=none;html=1;rounded=0;fontFamily=Helvetica;fontSize=12;fontColor=default;movable=1;resizable=1;rotatable=1;deletable=1;editable=1;locked=0;connectable=1;exitX=0.343;exitY=0.998;exitDx=0;exitDy=0;exitPerimeter=0;" parent="PmK2E9ObwFfIMZQdWyZE-445" edge="1">
          <mxGeometry width="50" height="50" relative="1" as="geometry">
            <mxPoint x="118.35999999999981" y="79.84000000000015" as="sourcePoint" />
            <mxPoint x="118.25000000000003" y="40" as="targetPoint" />
          </mxGeometry>
        </mxCell>
        <mxCell id="PmK2E9ObwFfIMZQdWyZE-475" value="v_distancia[cod_vuelo - 1] &amp;gt; 500" style="rhombus;whiteSpace=wrap;html=1;" parent="PmK2E9ObwFfIMZQdWyZE-8" vertex="1">
          <mxGeometry x="166.1600000000001" y="530" width="182" height="100" as="geometry" />
        </mxCell>
        <mxCell id="PmK2E9ObwFfIMZQdWyZE-477" style="edgeStyle=orthogonalEdgeStyle;rounded=0;orthogonalLoop=1;jettySize=auto;html=1;exitX=0;exitY=0.5;exitDx=0;exitDy=0;entryX=0.265;entryY=0;entryDx=0;entryDy=0;entryPerimeter=0;endArrow=none;endFill=0;" parent="PmK2E9ObwFfIMZQdWyZE-8" source="PmK2E9ObwFfIMZQdWyZE-475" edge="1">
          <mxGeometry relative="1" as="geometry">
            <mxPoint x="102.16" y="690" as="targetPoint" />
          </mxGeometry>
        </mxCell>
        <mxCell id="PmK2E9ObwFfIMZQdWyZE-478" style="edgeStyle=orthogonalEdgeStyle;rounded=0;orthogonalLoop=1;jettySize=auto;html=1;exitX=1;exitY=0.5;exitDx=0;exitDy=0;entryX=0.4;entryY=1;entryDx=0;entryDy=0;entryPerimeter=0;endArrow=none;endFill=0;" parent="PmK2E9ObwFfIMZQdWyZE-8" source="PmK2E9ObwFfIMZQdWyZE-475" edge="1">
          <mxGeometry relative="1" as="geometry">
            <mxPoint x="156.16" y="770" as="targetPoint" />
            <Array as="points">
              <mxPoint x="426.16" y="580" />
              <mxPoint x="426.16" y="790" />
              <mxPoint x="156.16" y="790" />
            </Array>
          </mxGeometry>
        </mxCell>
        <mxCell id="PmK2E9ObwFfIMZQdWyZE-480" style="edgeStyle=orthogonalEdgeStyle;rounded=0;orthogonalLoop=1;jettySize=auto;html=1;exitX=0.5;exitY=1;exitDx=0;exitDy=0;entryX=0.5;entryY=0;entryDx=0;entryDy=0;endArrow=none;endFill=0;" parent="PmK2E9ObwFfIMZQdWyZE-8" source="PmK2E9ObwFfIMZQdWyZE-454" target="PmK2E9ObwFfIMZQdWyZE-475" edge="1">
          <mxGeometry relative="1" as="geometry" />
        </mxCell>
        <mxCell id="PmK2E9ObwFfIMZQdWyZE-481" style="edgeStyle=orthogonalEdgeStyle;rounded=0;orthogonalLoop=1;jettySize=auto;html=1;exitX=0.5;exitY=1;exitDx=0;exitDy=0;entryX=0.485;entryY=-0.012;entryDx=0;entryDy=0;entryPerimeter=0;endArrow=none;endFill=0;" parent="PmK2E9ObwFfIMZQdWyZE-8" source="PmK2E9ObwFfIMZQdWyZE-256" target="PmK2E9ObwFfIMZQdWyZE-454" edge="1">
          <mxGeometry relative="1" as="geometry" />
        </mxCell>
        <mxCell id="PmK2E9ObwFfIMZQdWyZE-21" value="int v_origen[50],int v_destino[50], float v_costo[50], v_distancia[50]" style="whiteSpace=wrap;html=1;rounded=0;align=center;verticalAlign=middle;horizontal=1;" parent="WIyWlLk6GJQsqaUBKTNV-1" vertex="1">
          <mxGeometry x="263.88" y="-380" width="210" height="60" as="geometry" />
        </mxCell>
        <mxCell id="PmK2E9ObwFfIMZQdWyZE-22" value="F" style="ellipse;whiteSpace=wrap;html=1;rounded=0;" parent="WIyWlLk6GJQsqaUBKTNV-1" vertex="1">
          <mxGeometry x="990" y="410" width="50" height="50" as="geometry" />
        </mxCell>
        <mxCell id="PmK2E9ObwFfIMZQdWyZE-23" style="edgeStyle=orthogonalEdgeStyle;rounded=0;orthogonalLoop=1;jettySize=auto;html=1;exitX=0.5;exitY=1;exitDx=0;exitDy=0;entryX=0.462;entryY=0;entryDx=0;entryDy=0;entryPerimeter=0;align=center;verticalAlign=middle;horizontal=1;endArrow=none;endFill=0;" parent="WIyWlLk6GJQsqaUBKTNV-1" source="PmK2E9ObwFfIMZQdWyZE-21" edge="1">
          <mxGeometry relative="1" as="geometry">
            <mxPoint x="368.82220000000007" y="-280" as="targetPoint" />
          </mxGeometry>
        </mxCell>
        <mxCell id="PmK2E9ObwFfIMZQdWyZE-24" value="" style="group;rounded=0;" parent="WIyWlLk6GJQsqaUBKTNV-1" vertex="1" connectable="0">
          <mxGeometry x="835" y="40" width="360" height="90" as="geometry" />
        </mxCell>
        <mxCell id="PmK2E9ObwFfIMZQdWyZE-25" value="" style="group;shadow=1;rounded=0;" parent="PmK2E9ObwFfIMZQdWyZE-24" vertex="1" connectable="0">
          <mxGeometry width="360" height="90.00000000000001" as="geometry" />
        </mxCell>
        <mxCell id="PmK2E9ObwFfIMZQdWyZE-26" value="" style="shape=hexagon;perimeter=hexagonPerimeter2;whiteSpace=wrap;html=1;fixedSize=1;size=20;rounded=0;" parent="PmK2E9ObwFfIMZQdWyZE-25" vertex="1">
          <mxGeometry width="360" height="90.00000000000001" as="geometry" />
        </mxCell>
        <mxCell id="PmK2E9ObwFfIMZQdWyZE-27" value="" style="endArrow=none;html=1;rounded=0;entryX=1;entryY=0.5;entryDx=0;entryDy=0;" parent="PmK2E9ObwFfIMZQdWyZE-25" target="PmK2E9ObwFfIMZQdWyZE-26" edge="1">
          <mxGeometry width="50" height="50" relative="1" as="geometry">
            <mxPoint y="44.84250000000002" as="sourcePoint" />
            <mxPoint x="239.99999999999997" y="44.84250000000002" as="targetPoint" />
          </mxGeometry>
        </mxCell>
        <mxCell id="PmK2E9ObwFfIMZQdWyZE-28" value="int v_origen[50],int v_destino[50], float v_costo[50], float v_distancia[50]" style="text;align=center;html=1;verticalAlign=middle;whiteSpace=wrap;rounded=0;fontSize=12;fontFamily=Helvetica;" parent="PmK2E9ObwFfIMZQdWyZE-25" vertex="1">
          <mxGeometry x="130" y="49.09090909090909" width="220" height="33.75" as="geometry" />
        </mxCell>
        <mxCell id="PmK2E9ObwFfIMZQdWyZE-29" value="void fCarga" style="text;align=center;html=1;verticalAlign=middle;whiteSpace=wrap;rounded=0;fontSize=12;fontFamily=Helvetica;" parent="PmK2E9ObwFfIMZQdWyZE-25" vertex="1">
          <mxGeometry x="90" y="16.363636363636363" width="180" height="6.136363636363638" as="geometry" />
        </mxCell>
        <mxCell id="PmK2E9ObwFfIMZQdWyZE-30" value="" style="endArrow=none;html=1;rounded=0;fontFamily=Helvetica;fontSize=12;fontColor=default;exitX=0.375;exitY=1;exitDx=0;exitDy=0;" parent="PmK2E9ObwFfIMZQdWyZE-24" source="PmK2E9ObwFfIMZQdWyZE-26" edge="1">
          <mxGeometry width="50" height="50" relative="1" as="geometry">
            <mxPoint x="59.99999999999999" y="112.5" as="sourcePoint" />
            <mxPoint x="135" y="45.00000000000001" as="targetPoint" />
          </mxGeometry>
        </mxCell>
        <mxCell id="PmK2E9ObwFfIMZQdWyZE-31" value="" style="group;rounded=0;" parent="WIyWlLk6GJQsqaUBKTNV-1" vertex="1" connectable="0">
          <mxGeometry x="720" y="470" width="590" height="120" as="geometry" />
        </mxCell>
        <mxCell id="PmK2E9ObwFfIMZQdWyZE-32" value="" style="group;shadow=1;rounded=0;" parent="PmK2E9ObwFfIMZQdWyZE-31" vertex="1" connectable="0">
          <mxGeometry width="590" height="120" as="geometry" />
        </mxCell>
        <mxCell id="PmK2E9ObwFfIMZQdWyZE-33" value="" style="shape=hexagon;perimeter=hexagonPerimeter2;whiteSpace=wrap;html=1;fixedSize=1;size=20;rounded=0;" parent="PmK2E9ObwFfIMZQdWyZE-32" vertex="1">
          <mxGeometry width="590" height="120" as="geometry" />
        </mxCell>
        <mxCell id="PmK2E9ObwFfIMZQdWyZE-34" value="" style="endArrow=none;html=1;rounded=0;entryX=1;entryY=0.5;entryDx=0;entryDy=0;" parent="PmK2E9ObwFfIMZQdWyZE-32" target="PmK2E9ObwFfIMZQdWyZE-33" edge="1">
          <mxGeometry width="50" height="50" relative="1" as="geometry">
            <mxPoint y="59.79000000000002" as="sourcePoint" />
            <mxPoint x="393.3333333333333" y="59.79000000000002" as="targetPoint" />
          </mxGeometry>
        </mxCell>
        <mxCell id="PmK2E9ObwFfIMZQdWyZE-35" value="float millasPTA[150], float v_distancia[50], int v_max[12], int vendedor_max[12], float recaudacionVendedor[8], float v_costo[50] , int vendedorPuntoD[8],v_ventaMax&lt;br&gt;, float v_bimestre[6]" style="text;align=center;html=1;verticalAlign=middle;whiteSpace=wrap;rounded=0;fontSize=12;fontFamily=Helvetica;" parent="PmK2E9ObwFfIMZQdWyZE-32" vertex="1">
          <mxGeometry x="220" y="70" width="350" height="45" as="geometry" />
        </mxCell>
        <mxCell id="PmK2E9ObwFfIMZQdWyZE-36" value="void fProceso" style="text;align=center;html=1;verticalAlign=middle;whiteSpace=wrap;rounded=0;fontSize=12;fontFamily=Helvetica;" parent="PmK2E9ObwFfIMZQdWyZE-32" vertex="1">
          <mxGeometry x="147.5" y="15" width="295" height="15" as="geometry" />
        </mxCell>
        <mxCell id="PmK2E9ObwFfIMZQdWyZE-37" value="" style="endArrow=none;html=1;rounded=0;fontFamily=Helvetica;fontSize=12;fontColor=default;exitX=0.375;exitY=1;exitDx=0;exitDy=0;" parent="PmK2E9ObwFfIMZQdWyZE-31" source="PmK2E9ObwFfIMZQdWyZE-33" edge="1">
          <mxGeometry width="50" height="50" relative="1" as="geometry">
            <mxPoint x="98.33333333333333" y="150" as="sourcePoint" />
            <mxPoint x="221.25" y="60" as="targetPoint" />
          </mxGeometry>
        </mxCell>
        <mxCell id="PmK2E9ObwFfIMZQdWyZE-38" value="" style="group;rounded=0;align=center;verticalAlign=middle;horizontal=1;" parent="WIyWlLk6GJQsqaUBKTNV-1" vertex="1" connectable="0">
          <mxGeometry x="188.88" y="-280" width="360" height="90" as="geometry" />
        </mxCell>
        <mxCell id="PmK2E9ObwFfIMZQdWyZE-39" value="" style="group;shadow=1;rounded=0;align=center;verticalAlign=middle;horizontal=1;" parent="PmK2E9ObwFfIMZQdWyZE-38" vertex="1" connectable="0">
          <mxGeometry width="360" height="90" as="geometry" />
        </mxCell>
        <mxCell id="PmK2E9ObwFfIMZQdWyZE-40" value="" style="shape=hexagon;perimeter=hexagonPerimeter2;whiteSpace=wrap;html=1;fixedSize=1;size=20;rounded=0;align=center;verticalAlign=middle;horizontal=1;" parent="PmK2E9ObwFfIMZQdWyZE-39" vertex="1">
          <mxGeometry width="360" height="90" as="geometry" />
        </mxCell>
        <mxCell id="PmK2E9ObwFfIMZQdWyZE-41" value="" style="endArrow=none;html=1;rounded=0;entryX=1;entryY=0.5;entryDx=0;entryDy=0;align=center;verticalAlign=middle;horizontal=1;" parent="PmK2E9ObwFfIMZQdWyZE-39" target="PmK2E9ObwFfIMZQdWyZE-40" edge="1">
          <mxGeometry width="50" height="50" relative="1" as="geometry">
            <mxPoint y="44.842500000000015" as="sourcePoint" />
            <mxPoint x="239.99999999999997" y="44.842500000000015" as="targetPoint" />
          </mxGeometry>
        </mxCell>
        <mxCell id="PmK2E9ObwFfIMZQdWyZE-42" value="v_origen, v_destino,&amp;nbsp; v_costo, v_distancia" style="text;align=center;html=1;verticalAlign=middle;whiteSpace=wrap;rounded=0;fontSize=12;fontFamily=Helvetica;horizontal=1;" parent="PmK2E9ObwFfIMZQdWyZE-39" vertex="1">
          <mxGeometry x="150.00260869565216" y="45" width="178.69304347826088" height="33.75" as="geometry" />
        </mxCell>
        <mxCell id="PmK2E9ObwFfIMZQdWyZE-43" value="&amp;nbsp;fCarga" style="text;align=center;html=1;verticalAlign=middle;whiteSpace=wrap;rounded=0;fontSize=12;fontFamily=Helvetica;horizontal=1;" parent="PmK2E9ObwFfIMZQdWyZE-39" vertex="1">
          <mxGeometry x="90" y="16.363636363636363" width="180" height="6.136363636363637" as="geometry" />
        </mxCell>
        <mxCell id="PmK2E9ObwFfIMZQdWyZE-44" value="" style="endArrow=none;html=1;rounded=0;fontFamily=Helvetica;fontSize=12;fontColor=default;exitX=0.375;exitY=1;exitDx=0;exitDy=0;align=center;verticalAlign=middle;horizontal=1;" parent="PmK2E9ObwFfIMZQdWyZE-38" source="PmK2E9ObwFfIMZQdWyZE-40" edge="1">
          <mxGeometry width="50" height="50" relative="1" as="geometry">
            <mxPoint x="59.99999999999999" y="112.5" as="sourcePoint" />
            <mxPoint x="135" y="45" as="targetPoint" />
          </mxGeometry>
        </mxCell>
        <mxCell id="PmK2E9ObwFfIMZQdWyZE-45" value="" style="group;rounded=0;align=center;verticalAlign=middle;horizontal=1;" parent="WIyWlLk6GJQsqaUBKTNV-1" vertex="1" connectable="0">
          <mxGeometry x="160" y="890" width="380" height="120" as="geometry" />
        </mxCell>
        <mxCell id="PmK2E9ObwFfIMZQdWyZE-46" value="" style="group;shadow=1;rounded=0;align=center;verticalAlign=middle;horizontal=1;" parent="PmK2E9ObwFfIMZQdWyZE-45" vertex="1" connectable="0">
          <mxGeometry width="380" height="120" as="geometry" />
        </mxCell>
        <mxCell id="PmK2E9ObwFfIMZQdWyZE-47" value="" style="shape=hexagon;perimeter=hexagonPerimeter2;whiteSpace=wrap;html=1;fixedSize=1;size=20;rounded=0;align=center;verticalAlign=middle;horizontal=1;" parent="PmK2E9ObwFfIMZQdWyZE-46" vertex="1">
          <mxGeometry width="380" height="120" as="geometry" />
        </mxCell>
        <mxCell id="PmK2E9ObwFfIMZQdWyZE-48" value="" style="endArrow=none;html=1;rounded=0;entryX=1;entryY=0.5;entryDx=0;entryDy=0;align=center;verticalAlign=middle;horizontal=1;" parent="PmK2E9ObwFfIMZQdWyZE-46" target="PmK2E9ObwFfIMZQdWyZE-47" edge="1">
          <mxGeometry width="50" height="50" relative="1" as="geometry">
            <mxPoint y="59.79000000000002" as="sourcePoint" />
            <mxPoint x="253.33333333333331" y="59.79000000000002" as="targetPoint" />
          </mxGeometry>
        </mxCell>
        <mxCell id="PmK2E9ObwFfIMZQdWyZE-49" value="millasPTA, v_distancia, v_max, vendedor_max, recaudacionVendedor, v_costo, vendedorPuntoD,v_ventaMax&lt;br&gt;, v_bimestre" style="text;align=center;html=1;verticalAlign=middle;whiteSpace=wrap;rounded=0;fontSize=12;fontFamily=Helvetica;horizontal=1;" parent="PmK2E9ObwFfIMZQdWyZE-46" vertex="1">
          <mxGeometry x="134" y="70" width="239.7" height="45" as="geometry" />
        </mxCell>
        <mxCell id="PmK2E9ObwFfIMZQdWyZE-50" value="fProceso" style="text;align=center;html=1;verticalAlign=middle;whiteSpace=wrap;rounded=0;fontSize=12;fontFamily=Helvetica;horizontal=1;" parent="PmK2E9ObwFfIMZQdWyZE-46" vertex="1">
          <mxGeometry x="95" y="15" width="190" height="15" as="geometry" />
        </mxCell>
        <mxCell id="PmK2E9ObwFfIMZQdWyZE-51" value="" style="endArrow=none;html=1;rounded=0;fontFamily=Helvetica;fontSize=12;fontColor=default;exitX=0.375;exitY=1;exitDx=0;exitDy=0;align=center;verticalAlign=middle;horizontal=1;" parent="PmK2E9ObwFfIMZQdWyZE-45" source="PmK2E9ObwFfIMZQdWyZE-47" edge="1">
          <mxGeometry width="50" height="50" relative="1" as="geometry">
            <mxPoint x="63.33333333333333" y="150" as="sourcePoint" />
            <mxPoint x="142.5" y="60" as="targetPoint" />
          </mxGeometry>
        </mxCell>
        <mxCell id="PmK2E9ObwFfIMZQdWyZE-52" value="" style="group;align=center;verticalAlign=middle;horizontal=1;" parent="WIyWlLk6GJQsqaUBKTNV-1" vertex="1" connectable="0">
          <mxGeometry x="308.88" y="-480" width="120" height="80" as="geometry" />
        </mxCell>
        <mxCell id="PmK2E9ObwFfIMZQdWyZE-53" value="" style="group;shadow=1;align=center;verticalAlign=middle;horizontal=1;" parent="PmK2E9ObwFfIMZQdWyZE-52" vertex="1" connectable="0">
          <mxGeometry width="120" height="80" as="geometry" />
        </mxCell>
        <mxCell id="PmK2E9ObwFfIMZQdWyZE-54" value="" style="shape=hexagon;perimeter=hexagonPerimeter2;whiteSpace=wrap;html=1;fixedSize=1;size=20;align=center;verticalAlign=middle;horizontal=1;" parent="PmK2E9ObwFfIMZQdWyZE-53" vertex="1">
          <mxGeometry width="120" height="80" as="geometry" />
        </mxCell>
        <mxCell id="PmK2E9ObwFfIMZQdWyZE-55" value="" style="endArrow=none;html=1;rounded=0;entryX=1;entryY=0.5;entryDx=0;entryDy=0;align=center;verticalAlign=middle;horizontal=1;" parent="PmK2E9ObwFfIMZQdWyZE-53" target="PmK2E9ObwFfIMZQdWyZE-54" edge="1">
          <mxGeometry width="50" height="50" relative="1" as="geometry">
            <mxPoint y="39.860000000000014" as="sourcePoint" />
            <mxPoint x="80" y="39.860000000000014" as="targetPoint" />
          </mxGeometry>
        </mxCell>
        <mxCell id="PmK2E9ObwFfIMZQdWyZE-56" value="void main" style="text;align=center;html=1;verticalAlign=middle;whiteSpace=wrap;rounded=0;fontSize=12;fontFamily=Helvetica;horizontal=1;" parent="PmK2E9ObwFfIMZQdWyZE-53" vertex="1">
          <mxGeometry x="30" y="10" width="60" height="10" as="geometry" />
        </mxCell>
        <mxCell id="PmK2E9ObwFfIMZQdWyZE-57" value="" style="endArrow=none;html=1;rounded=0;fontFamily=Helvetica;fontSize=12;fontColor=default;exitX=0.375;exitY=1;exitDx=0;exitDy=0;align=center;verticalAlign=middle;horizontal=1;" parent="PmK2E9ObwFfIMZQdWyZE-52" source="PmK2E9ObwFfIMZQdWyZE-54" edge="1">
          <mxGeometry width="50" height="50" relative="1" as="geometry">
            <mxPoint x="20" y="100" as="sourcePoint" />
            <mxPoint x="45" y="40" as="targetPoint" />
          </mxGeometry>
        </mxCell>
        <mxCell id="PmK2E9ObwFfIMZQdWyZE-58" style="edgeStyle=orthogonalEdgeStyle;rounded=0;orthogonalLoop=1;jettySize=auto;html=1;exitX=0.5;exitY=1;exitDx=0;exitDy=0;entryX=0.5;entryY=0;entryDx=0;entryDy=0;endArrow=none;endFill=0;" parent="WIyWlLk6GJQsqaUBKTNV-1" source="PmK2E9ObwFfIMZQdWyZE-59" target="PmK2E9ObwFfIMZQdWyZE-61" edge="1">
          <mxGeometry relative="1" as="geometry" />
        </mxCell>
        <mxCell id="PmK2E9ObwFfIMZQdWyZE-59" value="float millasPTA[150]&lt;br&gt;" style="whiteSpace=wrap;html=1;align=center;verticalAlign=middle;horizontal=1;" parent="WIyWlLk6GJQsqaUBKTNV-1" vertex="1">
          <mxGeometry x="308.88" y="-170" width="120" height="30" as="geometry" />
        </mxCell>
        <mxCell id="PmK2E9ObwFfIMZQdWyZE-60" value="" style="group;shadow=1;align=center;verticalAlign=middle;horizontal=1;" parent="WIyWlLk6GJQsqaUBKTNV-1" vertex="1" connectable="0">
          <mxGeometry x="238.88" y="-120" width="260" height="80" as="geometry" />
        </mxCell>
        <mxCell id="PmK2E9ObwFfIMZQdWyZE-61" value="" style="shape=hexagon;perimeter=hexagonPerimeter2;whiteSpace=wrap;html=1;fixedSize=1;size=20;align=center;verticalAlign=middle;horizontal=1;" parent="PmK2E9ObwFfIMZQdWyZE-60" vertex="1">
          <mxGeometry width="260" height="80" as="geometry" />
        </mxCell>
        <mxCell id="PmK2E9ObwFfIMZQdWyZE-62" value="" style="endArrow=none;html=1;rounded=0;entryX=1;entryY=0.5;entryDx=0;entryDy=0;align=center;verticalAlign=middle;horizontal=1;" parent="PmK2E9ObwFfIMZQdWyZE-60" target="PmK2E9ObwFfIMZQdWyZE-61" edge="1">
          <mxGeometry width="50" height="50" relative="1" as="geometry">
            <mxPoint y="39.860000000000014" as="sourcePoint" />
            <mxPoint x="173.33333333333331" y="39.860000000000014" as="targetPoint" />
          </mxGeometry>
        </mxCell>
        <mxCell id="PmK2E9ObwFfIMZQdWyZE-63" value="150" style="text;strokeColor=none;align=center;fillColor=none;html=1;verticalAlign=middle;whiteSpace=wrap;rounded=0;fontSize=12;fontFamily=Helvetica;fontColor=default;horizontal=1;" parent="PmK2E9ObwFfIMZQdWyZE-60" vertex="1">
          <mxGeometry x="21.666666666666664" y="40" width="86.66666666666666" height="30" as="geometry" />
        </mxCell>
        <mxCell id="PmK2E9ObwFfIMZQdWyZE-64" value="millasPTA" style="text;strokeColor=none;align=center;fillColor=none;html=1;verticalAlign=middle;whiteSpace=wrap;rounded=0;fontSize=12;fontFamily=Helvetica;fontColor=default;horizontal=1;" parent="PmK2E9ObwFfIMZQdWyZE-60" vertex="1">
          <mxGeometry x="108.33333333333333" y="40" width="86.66666666666666" height="30" as="geometry" />
        </mxCell>
        <mxCell id="PmK2E9ObwFfIMZQdWyZE-65" value="inicializarCero" style="text;strokeColor=none;align=center;fillColor=none;html=1;verticalAlign=middle;whiteSpace=wrap;rounded=0;fontSize=12;fontFamily=Helvetica;fontColor=default;horizontal=1;" parent="PmK2E9ObwFfIMZQdWyZE-60" vertex="1">
          <mxGeometry x="65" y="10" width="130" height="10" as="geometry" />
        </mxCell>
        <mxCell id="PmK2E9ObwFfIMZQdWyZE-66" value="" style="endArrow=none;html=1;rounded=0;exitX=0.415;exitY=0.995;exitDx=0;exitDy=0;exitPerimeter=0;align=center;verticalAlign=middle;horizontal=1;" parent="PmK2E9ObwFfIMZQdWyZE-60" source="PmK2E9ObwFfIMZQdWyZE-61" edge="1">
          <mxGeometry width="50" height="50" relative="1" as="geometry">
            <mxPoint x="125.16000000000003" y="60" as="sourcePoint" />
            <mxPoint x="108.32952380952389" y="40" as="targetPoint" />
          </mxGeometry>
        </mxCell>
        <mxCell id="PmK2E9ObwFfIMZQdWyZE-67" value="" style="group" parent="WIyWlLk6GJQsqaUBKTNV-1" vertex="1" connectable="0">
          <mxGeometry x="932.63" y="1590" width="260" height="80" as="geometry" />
        </mxCell>
        <mxCell id="PmK2E9ObwFfIMZQdWyZE-68" value="" style="group;shadow=1;" parent="PmK2E9ObwFfIMZQdWyZE-67" vertex="1" connectable="0">
          <mxGeometry width="260" height="80" as="geometry" />
        </mxCell>
        <mxCell id="PmK2E9ObwFfIMZQdWyZE-69" value="" style="shape=hexagon;perimeter=hexagonPerimeter2;whiteSpace=wrap;html=1;fixedSize=1;size=20;" parent="PmK2E9ObwFfIMZQdWyZE-68" vertex="1">
          <mxGeometry width="260" height="80" as="geometry" />
        </mxCell>
        <mxCell id="PmK2E9ObwFfIMZQdWyZE-70" value="" style="endArrow=none;html=1;rounded=0;entryX=1;entryY=0.5;entryDx=0;entryDy=0;" parent="PmK2E9ObwFfIMZQdWyZE-68" target="PmK2E9ObwFfIMZQdWyZE-69" edge="1">
          <mxGeometry width="50" height="50" relative="1" as="geometry">
            <mxPoint y="39.860000000000014" as="sourcePoint" />
            <mxPoint x="173.33333333333331" y="39.860000000000014" as="targetPoint" />
          </mxGeometry>
        </mxCell>
        <mxCell id="PmK2E9ObwFfIMZQdWyZE-71" value="float millasPTA[150]" style="text;strokeColor=none;align=center;fillColor=none;html=1;verticalAlign=middle;whiteSpace=wrap;rounded=0;fontSize=12;fontFamily=Helvetica;fontColor=default;" parent="PmK2E9ObwFfIMZQdWyZE-68" vertex="1">
          <mxGeometry x="108.33333333333333" y="40" width="86.66666666666666" height="30" as="geometry" />
        </mxCell>
        <mxCell id="PmK2E9ObwFfIMZQdWyZE-72" value="void buscarMax" style="text;strokeColor=none;align=center;fillColor=none;html=1;verticalAlign=middle;whiteSpace=wrap;rounded=0;fontSize=12;fontFamily=Helvetica;fontColor=default;" parent="PmK2E9ObwFfIMZQdWyZE-68" vertex="1">
          <mxGeometry x="65" y="10" width="130" height="10" as="geometry" />
        </mxCell>
        <mxCell id="PmK2E9ObwFfIMZQdWyZE-73" value="" style="endArrow=none;html=1;rounded=0;fontFamily=Helvetica;fontSize=12;fontColor=default;exitX=0.375;exitY=1;exitDx=0;exitDy=0;movable=0;resizable=0;rotatable=0;deletable=0;editable=0;locked=1;connectable=0;" parent="PmK2E9ObwFfIMZQdWyZE-67" source="PmK2E9ObwFfIMZQdWyZE-69" edge="1">
          <mxGeometry width="50" height="50" relative="1" as="geometry">
            <mxPoint x="43.33333333333333" y="100" as="sourcePoint" />
            <mxPoint x="97.5" y="40" as="targetPoint" />
          </mxGeometry>
        </mxCell>
        <mxCell id="PmK2E9ObwFfIMZQdWyZE-74" style="edgeStyle=orthogonalEdgeStyle;rounded=0;orthogonalLoop=1;jettySize=auto;html=1;exitX=0.5;exitY=1;exitDx=0;exitDy=0;entryX=0.5;entryY=0;entryDx=0;entryDy=0;endArrow=none;endFill=0;" parent="WIyWlLk6GJQsqaUBKTNV-1" source="PmK2E9ObwFfIMZQdWyZE-75" edge="1">
          <mxGeometry relative="1" as="geometry">
            <mxPoint x="1049.9999999999998" y="2010" as="targetPoint" />
          </mxGeometry>
        </mxCell>
        <mxCell id="PmK2E9ObwFfIMZQdWyZE-75" value="int i=1;I&amp;lt;150;i++" style="swimlane;horizontal=0;whiteSpace=wrap;html=1;" parent="WIyWlLk6GJQsqaUBKTNV-1" vertex="1">
          <mxGeometry x="870" y="1780" width="360" height="200" as="geometry" />
        </mxCell>
        <mxCell id="PmK2E9ObwFfIMZQdWyZE-76" style="edgeStyle=orthogonalEdgeStyle;rounded=0;orthogonalLoop=1;jettySize=auto;html=1;exitX=0;exitY=0.5;exitDx=0;exitDy=0;endArrow=none;endFill=0;" parent="PmK2E9ObwFfIMZQdWyZE-75" source="PmK2E9ObwFfIMZQdWyZE-77" target="PmK2E9ObwFfIMZQdWyZE-78" edge="1">
          <mxGeometry relative="1" as="geometry" />
        </mxCell>
        <mxCell id="PmK2E9ObwFfIMZQdWyZE-77" value="millasPTA[i] &amp;gt; max" style="rhombus;whiteSpace=wrap;html=1;" parent="PmK2E9ObwFfIMZQdWyZE-75" vertex="1">
          <mxGeometry x="142.63" y="10" width="117.37" height="80" as="geometry" />
        </mxCell>
        <mxCell id="PmK2E9ObwFfIMZQdWyZE-78" value="max = millasPTA[i]" style="whiteSpace=wrap;html=1;" parent="PmK2E9ObwFfIMZQdWyZE-75" vertex="1">
          <mxGeometry x="50.960000000000036" y="85" width="120" height="30" as="geometry" />
        </mxCell>
        <mxCell id="PmK2E9ObwFfIMZQdWyZE-79" value="&amp;nbsp;clienteMaxMillas = i + 1" style="whiteSpace=wrap;html=1;" parent="PmK2E9ObwFfIMZQdWyZE-75" vertex="1">
          <mxGeometry x="50.96" y="130" width="129.04" height="30" as="geometry" />
        </mxCell>
        <mxCell id="PmK2E9ObwFfIMZQdWyZE-80" style="edgeStyle=orthogonalEdgeStyle;rounded=0;orthogonalLoop=1;jettySize=auto;html=1;exitX=0.5;exitY=1;exitDx=0;exitDy=0;entryX=0.462;entryY=0.04;entryDx=0;entryDy=0;entryPerimeter=0;endArrow=none;endFill=0;" parent="PmK2E9ObwFfIMZQdWyZE-75" source="PmK2E9ObwFfIMZQdWyZE-78" target="PmK2E9ObwFfIMZQdWyZE-79" edge="1">
          <mxGeometry relative="1" as="geometry" />
        </mxCell>
        <mxCell id="PmK2E9ObwFfIMZQdWyZE-81" style="edgeStyle=orthogonalEdgeStyle;rounded=0;orthogonalLoop=1;jettySize=auto;html=1;exitX=1;exitY=0.5;exitDx=0;exitDy=0;entryX=0.475;entryY=0.987;entryDx=0;entryDy=0;entryPerimeter=0;endArrow=none;endFill=0;" parent="PmK2E9ObwFfIMZQdWyZE-75" source="PmK2E9ObwFfIMZQdWyZE-77" target="PmK2E9ObwFfIMZQdWyZE-79" edge="1">
          <mxGeometry relative="1" as="geometry" />
        </mxCell>
        <mxCell id="PmK2E9ObwFfIMZQdWyZE-82" style="edgeStyle=orthogonalEdgeStyle;rounded=0;orthogonalLoop=1;jettySize=auto;html=1;exitX=0.5;exitY=1;exitDx=0;exitDy=0;entryX=0.5;entryY=0;entryDx=0;entryDy=0;endArrow=none;endFill=0;" parent="WIyWlLk6GJQsqaUBKTNV-1" source="PmK2E9ObwFfIMZQdWyZE-83" target="PmK2E9ObwFfIMZQdWyZE-85" edge="1">
          <mxGeometry relative="1" as="geometry" />
        </mxCell>
        <mxCell id="PmK2E9ObwFfIMZQdWyZE-83" value="max = millasPTA[0]" style="whiteSpace=wrap;html=1;" parent="WIyWlLk6GJQsqaUBKTNV-1" vertex="1">
          <mxGeometry x="1002.63" y="1690" width="120" height="30" as="geometry" />
        </mxCell>
        <mxCell id="PmK2E9ObwFfIMZQdWyZE-84" style="edgeStyle=orthogonalEdgeStyle;rounded=0;orthogonalLoop=1;jettySize=auto;html=1;exitX=0.5;exitY=1;exitDx=0;exitDy=0;endArrow=none;endFill=0;" parent="WIyWlLk6GJQsqaUBKTNV-1" source="PmK2E9ObwFfIMZQdWyZE-85" edge="1">
          <mxGeometry relative="1" as="geometry">
            <mxPoint x="1062.9403448275862" y="1780" as="targetPoint" />
          </mxGeometry>
        </mxCell>
        <mxCell id="PmK2E9ObwFfIMZQdWyZE-85" value="clienteMaxMillas = 1" style="whiteSpace=wrap;html=1;" parent="WIyWlLk6GJQsqaUBKTNV-1" vertex="1">
          <mxGeometry x="1002.63" y="1730" width="120" height="30" as="geometry" />
        </mxCell>
        <mxCell id="PmK2E9ObwFfIMZQdWyZE-86" value="F" style="ellipse;whiteSpace=wrap;html=1;" parent="WIyWlLk6GJQsqaUBKTNV-1" vertex="1">
          <mxGeometry x="1026.19" y="2070" width="50" height="50" as="geometry" />
        </mxCell>
        <mxCell id="PmK2E9ObwFfIMZQdWyZE-87" style="edgeStyle=orthogonalEdgeStyle;rounded=0;orthogonalLoop=1;jettySize=auto;html=1;exitX=0.5;exitY=1;exitDx=0;exitDy=0;entryX=0.5;entryY=0;entryDx=0;entryDy=0;endArrow=none;endFill=0;" parent="WIyWlLk6GJQsqaUBKTNV-1" source="PmK2E9ObwFfIMZQdWyZE-69" target="PmK2E9ObwFfIMZQdWyZE-83" edge="1">
          <mxGeometry relative="1" as="geometry" />
        </mxCell>
        <mxCell id="PmK2E9ObwFfIMZQdWyZE-88" style="edgeStyle=orthogonalEdgeStyle;rounded=0;orthogonalLoop=1;jettySize=auto;html=1;exitX=0.5;exitY=1;exitDx=0;exitDy=0;entryX=0.5;entryY=0;entryDx=0;entryDy=0;endArrow=none;endFill=0;" parent="WIyWlLk6GJQsqaUBKTNV-1" source="PmK2E9ObwFfIMZQdWyZE-89" target="PmK2E9ObwFfIMZQdWyZE-86" edge="1">
          <mxGeometry relative="1" as="geometry" />
        </mxCell>
        <mxCell id="PmK2E9ObwFfIMZQdWyZE-89" value="clienteMaxMillas" style="shape=trapezoid;perimeter=trapezoidPerimeter;whiteSpace=wrap;html=1;fixedSize=1;" parent="WIyWlLk6GJQsqaUBKTNV-1" vertex="1">
          <mxGeometry x="990" y="2010" width="120" height="40" as="geometry" />
        </mxCell>
        <mxCell id="PmK2E9ObwFfIMZQdWyZE-90" value="" style="group;align=center;verticalAlign=middle;horizontal=1;" parent="WIyWlLk6GJQsqaUBKTNV-1" vertex="1" connectable="0">
          <mxGeometry x="220" y="1050" width="260" height="80" as="geometry" />
        </mxCell>
        <mxCell id="PmK2E9ObwFfIMZQdWyZE-91" value="" style="group;shadow=1;align=center;verticalAlign=middle;horizontal=1;" parent="PmK2E9ObwFfIMZQdWyZE-90" vertex="1" connectable="0">
          <mxGeometry width="260" height="80" as="geometry" />
        </mxCell>
        <mxCell id="PmK2E9ObwFfIMZQdWyZE-92" value="" style="shape=hexagon;perimeter=hexagonPerimeter2;whiteSpace=wrap;html=1;fixedSize=1;size=20;align=center;verticalAlign=middle;horizontal=1;" parent="PmK2E9ObwFfIMZQdWyZE-91" vertex="1">
          <mxGeometry width="260" height="80" as="geometry" />
        </mxCell>
        <mxCell id="PmK2E9ObwFfIMZQdWyZE-93" value="" style="endArrow=none;html=1;rounded=0;entryX=1;entryY=0.5;entryDx=0;entryDy=0;align=center;verticalAlign=middle;horizontal=1;" parent="PmK2E9ObwFfIMZQdWyZE-91" target="PmK2E9ObwFfIMZQdWyZE-92" edge="1">
          <mxGeometry width="50" height="50" relative="1" as="geometry">
            <mxPoint y="39.860000000000014" as="sourcePoint" />
            <mxPoint x="173.33333333333331" y="39.860000000000014" as="targetPoint" />
          </mxGeometry>
        </mxCell>
        <mxCell id="PmK2E9ObwFfIMZQdWyZE-94" value="&amp;nbsp;millasPTA" style="text;strokeColor=none;align=center;fillColor=none;html=1;verticalAlign=middle;whiteSpace=wrap;rounded=0;fontSize=12;fontFamily=Helvetica;fontColor=default;horizontal=1;" parent="PmK2E9ObwFfIMZQdWyZE-91" vertex="1">
          <mxGeometry x="108.33333333333333" y="40" width="86.66666666666666" height="30" as="geometry" />
        </mxCell>
        <mxCell id="PmK2E9ObwFfIMZQdWyZE-95" value="buscarMax" style="text;strokeColor=none;align=center;fillColor=none;html=1;verticalAlign=middle;whiteSpace=wrap;rounded=0;fontSize=12;fontFamily=Helvetica;fontColor=default;horizontal=1;" parent="PmK2E9ObwFfIMZQdWyZE-91" vertex="1">
          <mxGeometry x="65" y="10" width="130" height="10" as="geometry" />
        </mxCell>
        <mxCell id="PmK2E9ObwFfIMZQdWyZE-96" value="" style="endArrow=none;html=1;rounded=0;fontFamily=Helvetica;fontSize=12;fontColor=default;exitX=0.375;exitY=1;exitDx=0;exitDy=0;movable=0;resizable=0;rotatable=0;deletable=0;editable=0;locked=1;connectable=0;" parent="PmK2E9ObwFfIMZQdWyZE-90" source="PmK2E9ObwFfIMZQdWyZE-92" edge="1">
          <mxGeometry width="50" height="50" relative="1" as="geometry">
            <mxPoint x="43.33333333333333" y="100" as="sourcePoint" />
            <mxPoint x="97.5" y="40" as="targetPoint" />
          </mxGeometry>
        </mxCell>
        <mxCell id="PmK2E9ObwFfIMZQdWyZE-97" value="" style="group" parent="WIyWlLk6GJQsqaUBKTNV-1" vertex="1" connectable="0">
          <mxGeometry x="861.5" y="2150" width="370" height="80" as="geometry" />
        </mxCell>
        <mxCell id="PmK2E9ObwFfIMZQdWyZE-98" value="" style="group;shadow=1;" parent="PmK2E9ObwFfIMZQdWyZE-97" vertex="1" connectable="0">
          <mxGeometry width="369.99999999999994" height="80" as="geometry" />
        </mxCell>
        <mxCell id="PmK2E9ObwFfIMZQdWyZE-99" value="" style="shape=hexagon;perimeter=hexagonPerimeter2;whiteSpace=wrap;html=1;fixedSize=1;size=20;" parent="PmK2E9ObwFfIMZQdWyZE-98" vertex="1">
          <mxGeometry width="369.99999999999994" height="80" as="geometry" />
        </mxCell>
        <mxCell id="PmK2E9ObwFfIMZQdWyZE-100" value="" style="endArrow=none;html=1;rounded=0;entryX=1;entryY=0.5;entryDx=0;entryDy=0;" parent="PmK2E9ObwFfIMZQdWyZE-98" target="PmK2E9ObwFfIMZQdWyZE-99" edge="1">
          <mxGeometry width="50" height="50" relative="1" as="geometry">
            <mxPoint y="39.860000000000014" as="sourcePoint" />
            <mxPoint x="246.66666666666663" y="39.860000000000014" as="targetPoint" />
          </mxGeometry>
        </mxCell>
        <mxCell id="PmK2E9ObwFfIMZQdWyZE-101" value="int cant_pasajes, int nro_vendedor, int mes" style="text;strokeColor=none;align=center;fillColor=none;html=1;verticalAlign=middle;whiteSpace=wrap;rounded=0;fontSize=12;fontFamily=Helvetica;fontColor=default;" parent="PmK2E9ObwFfIMZQdWyZE-98" vertex="1">
          <mxGeometry x="0.002121212121210192" y="40" width="141.83333333333334" height="30" as="geometry" />
        </mxCell>
        <mxCell id="PmK2E9ObwFfIMZQdWyZE-102" value="void fPuntoB" style="text;strokeColor=none;align=center;fillColor=none;html=1;verticalAlign=middle;whiteSpace=wrap;rounded=0;fontSize=12;fontFamily=Helvetica;fontColor=default;" parent="PmK2E9ObwFfIMZQdWyZE-98" vertex="1">
          <mxGeometry x="92.49999999999999" y="10" width="184.99999999999997" height="10" as="geometry" />
        </mxCell>
        <mxCell id="PmK2E9ObwFfIMZQdWyZE-103" value="int v_max[12], int vendedor_max[12]" style="text;strokeColor=none;align=center;fillColor=none;html=1;verticalAlign=middle;whiteSpace=wrap;rounded=0;" parent="PmK2E9ObwFfIMZQdWyZE-98" vertex="1">
          <mxGeometry x="203.5" y="40" width="74" height="30" as="geometry" />
        </mxCell>
        <mxCell id="PmK2E9ObwFfIMZQdWyZE-104" value="" style="endArrow=none;html=1;rounded=0;fontFamily=Helvetica;fontSize=12;fontColor=default;exitX=0.375;exitY=1;exitDx=0;exitDy=0;movable=0;resizable=0;rotatable=0;deletable=0;editable=0;locked=1;connectable=0;" parent="PmK2E9ObwFfIMZQdWyZE-97" source="PmK2E9ObwFfIMZQdWyZE-99" edge="1">
          <mxGeometry width="50" height="50" relative="1" as="geometry">
            <mxPoint x="61.66666666666666" y="100" as="sourcePoint" />
            <mxPoint x="138.75" y="40" as="targetPoint" />
          </mxGeometry>
        </mxCell>
        <mxCell id="PmK2E9ObwFfIMZQdWyZE-105" style="edgeStyle=orthogonalEdgeStyle;rounded=0;orthogonalLoop=1;jettySize=auto;html=1;exitX=0;exitY=0.5;exitDx=0;exitDy=0;entryX=0.5;entryY=0;entryDx=0;entryDy=0;endArrow=none;endFill=0;" parent="WIyWlLk6GJQsqaUBKTNV-1" source="PmK2E9ObwFfIMZQdWyZE-107" target="PmK2E9ObwFfIMZQdWyZE-108" edge="1">
          <mxGeometry relative="1" as="geometry" />
        </mxCell>
        <mxCell id="PmK2E9ObwFfIMZQdWyZE-106" style="edgeStyle=orthogonalEdgeStyle;rounded=0;orthogonalLoop=1;jettySize=auto;html=1;exitX=1;exitY=0.5;exitDx=0;exitDy=0;entryX=0.5;entryY=1;entryDx=0;entryDy=0;endArrow=none;endFill=0;" parent="WIyWlLk6GJQsqaUBKTNV-1" source="PmK2E9ObwFfIMZQdWyZE-107" target="PmK2E9ObwFfIMZQdWyZE-109" edge="1">
          <mxGeometry relative="1" as="geometry" />
        </mxCell>
        <mxCell id="PmK2E9ObwFfIMZQdWyZE-107" value="cant_pasajes &amp;gt; v_max[mes-1]" style="rhombus;whiteSpace=wrap;html=1;" parent="WIyWlLk6GJQsqaUBKTNV-1" vertex="1">
          <mxGeometry x="976.5" y="2250" width="140" height="80" as="geometry" />
        </mxCell>
        <mxCell id="PmK2E9ObwFfIMZQdWyZE-108" value="v_max[mes - 1] = cant_pasajes" style="whiteSpace=wrap;html=1;" parent="WIyWlLk6GJQsqaUBKTNV-1" vertex="1">
          <mxGeometry x="839.5" y="2330" width="150" height="30" as="geometry" />
        </mxCell>
        <mxCell id="PmK2E9ObwFfIMZQdWyZE-109" value="vendedor_max[mes-1] = nro_vendedor" style="whiteSpace=wrap;html=1;" parent="WIyWlLk6GJQsqaUBKTNV-1" vertex="1">
          <mxGeometry x="835" y="2370" width="163" height="30" as="geometry" />
        </mxCell>
        <mxCell id="PmK2E9ObwFfIMZQdWyZE-110" style="edgeStyle=orthogonalEdgeStyle;rounded=0;orthogonalLoop=1;jettySize=auto;html=1;exitX=0.5;exitY=0;exitDx=0;exitDy=0;endArrow=none;endFill=0;" parent="WIyWlLk6GJQsqaUBKTNV-1" source="PmK2E9ObwFfIMZQdWyZE-111" edge="1">
          <mxGeometry relative="1" as="geometry">
            <mxPoint x="1050.0769230769229" y="2420" as="targetPoint" />
          </mxGeometry>
        </mxCell>
        <mxCell id="PmK2E9ObwFfIMZQdWyZE-111" value="F" style="ellipse;whiteSpace=wrap;html=1;" parent="WIyWlLk6GJQsqaUBKTNV-1" vertex="1">
          <mxGeometry x="1030" y="2440" width="40" height="40" as="geometry" />
        </mxCell>
        <mxCell id="PmK2E9ObwFfIMZQdWyZE-112" style="edgeStyle=orthogonalEdgeStyle;rounded=0;orthogonalLoop=1;jettySize=auto;html=1;exitX=0.5;exitY=0;exitDx=0;exitDy=0;entryX=0.5;entryY=0;entryDx=0;entryDy=0;endArrow=none;endFill=0;" parent="WIyWlLk6GJQsqaUBKTNV-1" source="PmK2E9ObwFfIMZQdWyZE-113" target="PmK2E9ObwFfIMZQdWyZE-8" edge="1">
          <mxGeometry relative="1" as="geometry" />
        </mxCell>
        <mxCell id="PmK2E9ObwFfIMZQdWyZE-113" value="nro_cliente, cod_vuelo,dia,mes, cant_pasajes,nro_vendedor&amp;nbsp;" style="shape=trapezoid;perimeter=trapezoidPerimeter;whiteSpace=wrap;html=1;fixedSize=1;direction=west;rounded=0;" parent="WIyWlLk6GJQsqaUBKTNV-1" vertex="1">
          <mxGeometry x="923.8199999999999" y="615" width="182.37" height="60" as="geometry" />
        </mxCell>
        <mxCell id="PmK2E9ObwFfIMZQdWyZE-114" style="edgeStyle=orthogonalEdgeStyle;rounded=0;orthogonalLoop=1;jettySize=auto;html=1;exitX=0.5;exitY=1;exitDx=0;exitDy=0;entryX=0.5;entryY=0;entryDx=0;entryDy=0;endArrow=none;endFill=0;" parent="WIyWlLk6GJQsqaUBKTNV-1" source="PmK2E9ObwFfIMZQdWyZE-115" target="PmK2E9ObwFfIMZQdWyZE-117" edge="1">
          <mxGeometry relative="1" as="geometry" />
        </mxCell>
        <mxCell id="PmK2E9ObwFfIMZQdWyZE-115" value="int v_max[12],&lt;br&gt;int vendor_max[12]" style="whiteSpace=wrap;html=1;align=center;verticalAlign=middle;horizontal=1;" parent="WIyWlLk6GJQsqaUBKTNV-1" vertex="1">
          <mxGeometry x="308.88" y="-10" width="120" height="30" as="geometry" />
        </mxCell>
        <mxCell id="PmK2E9ObwFfIMZQdWyZE-116" value="" style="group;shadow=1;align=center;verticalAlign=middle;horizontal=1;" parent="WIyWlLk6GJQsqaUBKTNV-1" vertex="1" connectable="0">
          <mxGeometry x="238.88" y="40" width="260" height="80" as="geometry" />
        </mxCell>
        <mxCell id="PmK2E9ObwFfIMZQdWyZE-117" value="" style="shape=hexagon;perimeter=hexagonPerimeter2;whiteSpace=wrap;html=1;fixedSize=1;size=20;align=center;verticalAlign=middle;horizontal=1;" parent="PmK2E9ObwFfIMZQdWyZE-116" vertex="1">
          <mxGeometry width="260" height="80" as="geometry" />
        </mxCell>
        <mxCell id="PmK2E9ObwFfIMZQdWyZE-118" value="" style="endArrow=none;html=1;rounded=0;entryX=1;entryY=0.5;entryDx=0;entryDy=0;align=center;verticalAlign=middle;horizontal=1;" parent="PmK2E9ObwFfIMZQdWyZE-116" target="PmK2E9ObwFfIMZQdWyZE-117" edge="1">
          <mxGeometry width="50" height="50" relative="1" as="geometry">
            <mxPoint y="39.860000000000014" as="sourcePoint" />
            <mxPoint x="173.33333333333331" y="39.860000000000014" as="targetPoint" />
          </mxGeometry>
        </mxCell>
        <mxCell id="PmK2E9ObwFfIMZQdWyZE-119" value="12" style="text;strokeColor=none;align=center;fillColor=none;html=1;verticalAlign=middle;whiteSpace=wrap;rounded=0;fontSize=12;fontFamily=Helvetica;fontColor=default;horizontal=1;" parent="PmK2E9ObwFfIMZQdWyZE-116" vertex="1">
          <mxGeometry x="21.666666666666664" y="40" width="86.66666666666666" height="30" as="geometry" />
        </mxCell>
        <mxCell id="PmK2E9ObwFfIMZQdWyZE-120" value="v_max" style="text;strokeColor=none;align=center;fillColor=none;html=1;verticalAlign=middle;whiteSpace=wrap;rounded=0;fontSize=12;fontFamily=Helvetica;fontColor=default;horizontal=1;" parent="PmK2E9ObwFfIMZQdWyZE-116" vertex="1">
          <mxGeometry x="108.33333333333333" y="40" width="86.66666666666666" height="30" as="geometry" />
        </mxCell>
        <mxCell id="PmK2E9ObwFfIMZQdWyZE-121" value="inicializarCeroEnt" style="text;strokeColor=none;align=center;fillColor=none;html=1;verticalAlign=middle;whiteSpace=wrap;rounded=0;fontSize=12;fontFamily=Helvetica;fontColor=default;horizontal=1;" parent="PmK2E9ObwFfIMZQdWyZE-116" vertex="1">
          <mxGeometry x="65" y="10" width="130" height="10" as="geometry" />
        </mxCell>
        <mxCell id="PmK2E9ObwFfIMZQdWyZE-122" value="" style="endArrow=none;html=1;rounded=0;exitX=0.415;exitY=0.995;exitDx=0;exitDy=0;exitPerimeter=0;align=center;verticalAlign=middle;horizontal=1;" parent="PmK2E9ObwFfIMZQdWyZE-116" source="PmK2E9ObwFfIMZQdWyZE-117" edge="1">
          <mxGeometry width="50" height="50" relative="1" as="geometry">
            <mxPoint x="125.16000000000003" y="60" as="sourcePoint" />
            <mxPoint x="108.32952380952389" y="40" as="targetPoint" />
          </mxGeometry>
        </mxCell>
        <mxCell id="PmK2E9ObwFfIMZQdWyZE-123" value="" style="group;shadow=1;align=center;verticalAlign=middle;horizontal=1;" parent="WIyWlLk6GJQsqaUBKTNV-1" vertex="1" connectable="0">
          <mxGeometry x="238.88" y="140" width="260" height="80" as="geometry" />
        </mxCell>
        <mxCell id="PmK2E9ObwFfIMZQdWyZE-124" value="" style="shape=hexagon;perimeter=hexagonPerimeter2;whiteSpace=wrap;html=1;fixedSize=1;size=20;align=center;verticalAlign=middle;horizontal=1;" parent="PmK2E9ObwFfIMZQdWyZE-123" vertex="1">
          <mxGeometry width="260" height="80" as="geometry" />
        </mxCell>
        <mxCell id="PmK2E9ObwFfIMZQdWyZE-125" value="" style="endArrow=none;html=1;rounded=0;entryX=1;entryY=0.5;entryDx=0;entryDy=0;align=center;verticalAlign=middle;horizontal=1;" parent="PmK2E9ObwFfIMZQdWyZE-123" target="PmK2E9ObwFfIMZQdWyZE-124" edge="1">
          <mxGeometry width="50" height="50" relative="1" as="geometry">
            <mxPoint y="39.860000000000014" as="sourcePoint" />
            <mxPoint x="173.33333333333331" y="39.860000000000014" as="targetPoint" />
          </mxGeometry>
        </mxCell>
        <mxCell id="PmK2E9ObwFfIMZQdWyZE-126" value="12" style="text;strokeColor=none;align=center;fillColor=none;html=1;verticalAlign=middle;whiteSpace=wrap;rounded=0;fontSize=12;fontFamily=Helvetica;fontColor=default;horizontal=1;" parent="PmK2E9ObwFfIMZQdWyZE-123" vertex="1">
          <mxGeometry x="21.666666666666664" y="40" width="86.66666666666666" height="30" as="geometry" />
        </mxCell>
        <mxCell id="PmK2E9ObwFfIMZQdWyZE-127" value="vendedor_max" style="text;strokeColor=none;align=center;fillColor=none;html=1;verticalAlign=middle;whiteSpace=wrap;rounded=0;fontSize=12;fontFamily=Helvetica;fontColor=default;horizontal=1;" parent="PmK2E9ObwFfIMZQdWyZE-123" vertex="1">
          <mxGeometry x="120.00333333333333" y="40" width="86.66666666666666" height="30" as="geometry" />
        </mxCell>
        <mxCell id="PmK2E9ObwFfIMZQdWyZE-128" value="inicializarCeroEnt" style="text;strokeColor=none;align=center;fillColor=none;html=1;verticalAlign=middle;whiteSpace=wrap;rounded=0;fontSize=12;fontFamily=Helvetica;fontColor=default;horizontal=1;" parent="PmK2E9ObwFfIMZQdWyZE-123" vertex="1">
          <mxGeometry x="65" y="10" width="130" height="10" as="geometry" />
        </mxCell>
        <mxCell id="PmK2E9ObwFfIMZQdWyZE-129" value="" style="endArrow=none;html=1;rounded=0;exitX=0.415;exitY=0.995;exitDx=0;exitDy=0;exitPerimeter=0;align=center;verticalAlign=middle;horizontal=1;" parent="PmK2E9ObwFfIMZQdWyZE-123" source="PmK2E9ObwFfIMZQdWyZE-124" edge="1">
          <mxGeometry width="50" height="50" relative="1" as="geometry">
            <mxPoint x="125.16000000000003" y="60" as="sourcePoint" />
            <mxPoint x="108.32952380952389" y="40" as="targetPoint" />
          </mxGeometry>
        </mxCell>
        <mxCell id="PmK2E9ObwFfIMZQdWyZE-130" value="" style="group;strokeColor=none;fillColor=none;shadow=0;labelBackgroundColor=none;labelBorderColor=none;" parent="WIyWlLk6GJQsqaUBKTNV-1" vertex="1" connectable="0">
          <mxGeometry x="921.19" y="2520" width="260" height="80" as="geometry" />
        </mxCell>
        <mxCell id="PmK2E9ObwFfIMZQdWyZE-131" value="" style="group;shadow=1;" parent="PmK2E9ObwFfIMZQdWyZE-130" vertex="1" connectable="0">
          <mxGeometry width="260" height="80" as="geometry" />
        </mxCell>
        <mxCell id="PmK2E9ObwFfIMZQdWyZE-132" value="" style="shape=hexagon;perimeter=hexagonPerimeter2;whiteSpace=wrap;html=1;fixedSize=1;size=20;" parent="PmK2E9ObwFfIMZQdWyZE-131" vertex="1">
          <mxGeometry width="260" height="80" as="geometry" />
        </mxCell>
        <mxCell id="PmK2E9ObwFfIMZQdWyZE-133" value="" style="endArrow=none;html=1;rounded=0;entryX=1;entryY=0.5;entryDx=0;entryDy=0;" parent="PmK2E9ObwFfIMZQdWyZE-131" target="PmK2E9ObwFfIMZQdWyZE-132" edge="1">
          <mxGeometry width="50" height="50" relative="1" as="geometry">
            <mxPoint y="39.860000000000014" as="sourcePoint" />
            <mxPoint x="173.33333333333331" y="39.860000000000014" as="targetPoint" />
          </mxGeometry>
        </mxCell>
        <mxCell id="PmK2E9ObwFfIMZQdWyZE-134" value="int tamaño" style="text;strokeColor=none;align=center;fillColor=none;html=1;verticalAlign=middle;whiteSpace=wrap;rounded=0;fontSize=12;fontFamily=Helvetica;fontColor=default;" parent="PmK2E9ObwFfIMZQdWyZE-131" vertex="1">
          <mxGeometry x="8.806666666666665" y="40" width="86.66666666666666" height="30" as="geometry" />
        </mxCell>
        <mxCell id="PmK2E9ObwFfIMZQdWyZE-135" value="int v[]" style="text;strokeColor=none;align=center;fillColor=none;html=1;verticalAlign=middle;whiteSpace=wrap;rounded=0;fontSize=12;fontFamily=Helvetica;fontColor=default;" parent="PmK2E9ObwFfIMZQdWyZE-131" vertex="1">
          <mxGeometry x="115.00333333333333" y="40" width="86.66666666666666" height="30" as="geometry" />
        </mxCell>
        <mxCell id="PmK2E9ObwFfIMZQdWyZE-136" value="void recorrerVec" style="text;strokeColor=none;align=center;fillColor=none;html=1;verticalAlign=middle;whiteSpace=wrap;rounded=0;fontSize=12;fontFamily=Helvetica;fontColor=default;" parent="PmK2E9ObwFfIMZQdWyZE-131" vertex="1">
          <mxGeometry x="65" y="10" width="130" height="10" as="geometry" />
        </mxCell>
        <mxCell id="PmK2E9ObwFfIMZQdWyZE-137" value="" style="endArrow=none;html=1;rounded=0;fontFamily=Helvetica;fontSize=12;fontColor=default;exitX=0.375;exitY=1;exitDx=0;exitDy=0;movable=0;resizable=0;rotatable=0;deletable=0;editable=0;locked=1;connectable=0;" parent="PmK2E9ObwFfIMZQdWyZE-130" source="PmK2E9ObwFfIMZQdWyZE-132" edge="1">
          <mxGeometry width="50" height="50" relative="1" as="geometry">
            <mxPoint x="43.33333333333333" y="100" as="sourcePoint" />
            <mxPoint x="97.5" y="40" as="targetPoint" />
          </mxGeometry>
        </mxCell>
        <mxCell id="PmK2E9ObwFfIMZQdWyZE-138" style="edgeStyle=orthogonalEdgeStyle;rounded=0;orthogonalLoop=1;jettySize=auto;html=1;exitX=0.5;exitY=1;exitDx=0;exitDy=0;entryX=0.5;entryY=0;entryDx=0;entryDy=0;endArrow=none;endFill=0;" parent="WIyWlLk6GJQsqaUBKTNV-1" source="PmK2E9ObwFfIMZQdWyZE-139" target="PmK2E9ObwFfIMZQdWyZE-186" edge="1">
          <mxGeometry relative="1" as="geometry" />
        </mxCell>
        <mxCell id="PmK2E9ObwFfIMZQdWyZE-139" value="int x=0;x&amp;lt;tam;x++" style="swimlane;horizontal=0;whiteSpace=wrap;html=1;" parent="WIyWlLk6GJQsqaUBKTNV-1" vertex="1">
          <mxGeometry x="960" y="2630" width="170" height="120" as="geometry" />
        </mxCell>
        <mxCell id="PmK2E9ObwFfIMZQdWyZE-140" value="v[x]" style="shape=trapezoid;perimeter=trapezoidPerimeter;whiteSpace=wrap;html=1;fixedSize=1;" parent="PmK2E9ObwFfIMZQdWyZE-139" vertex="1">
          <mxGeometry x="34.989999999999995" y="20" width="120" height="40" as="geometry" />
        </mxCell>
        <mxCell id="PmK2E9ObwFfIMZQdWyZE-141" value="" style="group;align=center;verticalAlign=middle;horizontal=1;" parent="WIyWlLk6GJQsqaUBKTNV-1" vertex="1" connectable="0">
          <mxGeometry x="220.01" y="1220" width="260" height="80" as="geometry" />
        </mxCell>
        <mxCell id="PmK2E9ObwFfIMZQdWyZE-142" value="" style="group;shadow=1;align=center;verticalAlign=middle;horizontal=1;" parent="PmK2E9ObwFfIMZQdWyZE-141" vertex="1" connectable="0">
          <mxGeometry width="260" height="80" as="geometry" />
        </mxCell>
        <mxCell id="PmK2E9ObwFfIMZQdWyZE-143" value="" style="shape=hexagon;perimeter=hexagonPerimeter2;whiteSpace=wrap;html=1;fixedSize=1;size=20;align=center;verticalAlign=middle;horizontal=1;" parent="PmK2E9ObwFfIMZQdWyZE-142" vertex="1">
          <mxGeometry width="260" height="80" as="geometry" />
        </mxCell>
        <mxCell id="PmK2E9ObwFfIMZQdWyZE-144" value="" style="endArrow=none;html=1;rounded=0;entryX=1;entryY=0.5;entryDx=0;entryDy=0;align=center;verticalAlign=middle;horizontal=1;" parent="PmK2E9ObwFfIMZQdWyZE-142" target="PmK2E9ObwFfIMZQdWyZE-143" edge="1">
          <mxGeometry width="50" height="50" relative="1" as="geometry">
            <mxPoint y="39.860000000000014" as="sourcePoint" />
            <mxPoint x="173.33333333333331" y="39.860000000000014" as="targetPoint" />
          </mxGeometry>
        </mxCell>
        <mxCell id="PmK2E9ObwFfIMZQdWyZE-145" value="12" style="text;strokeColor=none;align=center;fillColor=none;html=1;verticalAlign=middle;whiteSpace=wrap;rounded=0;fontSize=12;fontFamily=Helvetica;fontColor=default;horizontal=1;" parent="PmK2E9ObwFfIMZQdWyZE-142" vertex="1">
          <mxGeometry x="21.666666666666664" y="40" width="86.66666666666666" height="30" as="geometry" />
        </mxCell>
        <mxCell id="PmK2E9ObwFfIMZQdWyZE-146" value="vendedor_max" style="text;strokeColor=none;align=center;fillColor=none;html=1;verticalAlign=middle;whiteSpace=wrap;rounded=0;fontSize=12;fontFamily=Helvetica;fontColor=default;horizontal=1;" parent="PmK2E9ObwFfIMZQdWyZE-142" vertex="1">
          <mxGeometry x="115.00333333333333" y="40" width="86.66666666666666" height="30" as="geometry" />
        </mxCell>
        <mxCell id="PmK2E9ObwFfIMZQdWyZE-147" value="recorrerVec" style="text;strokeColor=none;align=center;fillColor=none;html=1;verticalAlign=middle;whiteSpace=wrap;rounded=0;fontSize=12;fontFamily=Helvetica;fontColor=default;horizontal=1;" parent="PmK2E9ObwFfIMZQdWyZE-142" vertex="1">
          <mxGeometry x="65" y="10" width="130" height="10" as="geometry" />
        </mxCell>
        <mxCell id="PmK2E9ObwFfIMZQdWyZE-148" value="" style="endArrow=none;html=1;rounded=0;fontFamily=Helvetica;fontSize=12;fontColor=default;exitX=0.375;exitY=1;exitDx=0;exitDy=0;movable=0;resizable=0;rotatable=0;deletable=0;editable=0;locked=1;connectable=0;" parent="PmK2E9ObwFfIMZQdWyZE-141" source="PmK2E9ObwFfIMZQdWyZE-143" edge="1">
          <mxGeometry width="50" height="50" relative="1" as="geometry">
            <mxPoint x="43.33333333333333" y="100" as="sourcePoint" />
            <mxPoint x="97.5" y="40" as="targetPoint" />
          </mxGeometry>
        </mxCell>
        <mxCell id="PmK2E9ObwFfIMZQdWyZE-149" style="edgeStyle=orthogonalEdgeStyle;rounded=0;orthogonalLoop=1;jettySize=auto;html=1;exitX=0.5;exitY=1;exitDx=0;exitDy=0;entryX=0.5;entryY=0;entryDx=0;entryDy=0;endArrow=none;endFill=0;" parent="WIyWlLk6GJQsqaUBKTNV-1" source="PmK2E9ObwFfIMZQdWyZE-150" target="PmK2E9ObwFfIMZQdWyZE-143" edge="1">
          <mxGeometry relative="1" as="geometry" />
        </mxCell>
        <mxCell id="PmK2E9ObwFfIMZQdWyZE-150" value="&quot;Vendedor con max ventas:&quot;" style="shape=trapezoid;perimeter=trapezoidPerimeter;whiteSpace=wrap;html=1;fixedSize=1;align=center;verticalAlign=middle;horizontal=1;" parent="WIyWlLk6GJQsqaUBKTNV-1" vertex="1">
          <mxGeometry x="256.26" y="1150" width="187.5" height="50" as="geometry" />
        </mxCell>
        <mxCell id="PmK2E9ObwFfIMZQdWyZE-151" value="" style="group" parent="WIyWlLk6GJQsqaUBKTNV-1" vertex="1" connectable="0">
          <mxGeometry x="881.19" y="-240" width="260" height="80" as="geometry" />
        </mxCell>
        <mxCell id="PmK2E9ObwFfIMZQdWyZE-152" value="" style="group;shadow=1;" parent="PmK2E9ObwFfIMZQdWyZE-151" vertex="1" connectable="0">
          <mxGeometry width="260" height="80" as="geometry" />
        </mxCell>
        <mxCell id="PmK2E9ObwFfIMZQdWyZE-153" value="" style="shape=hexagon;perimeter=hexagonPerimeter2;whiteSpace=wrap;html=1;fixedSize=1;size=20;" parent="PmK2E9ObwFfIMZQdWyZE-152" vertex="1">
          <mxGeometry width="260" height="80" as="geometry" />
        </mxCell>
        <mxCell id="PmK2E9ObwFfIMZQdWyZE-154" value="" style="endArrow=none;html=1;rounded=0;entryX=1;entryY=0.5;entryDx=0;entryDy=0;" parent="PmK2E9ObwFfIMZQdWyZE-152" target="PmK2E9ObwFfIMZQdWyZE-153" edge="1">
          <mxGeometry width="50" height="50" relative="1" as="geometry">
            <mxPoint y="39.860000000000014" as="sourcePoint" />
            <mxPoint x="173.33333333333331" y="39.860000000000014" as="targetPoint" />
          </mxGeometry>
        </mxCell>
        <mxCell id="PmK2E9ObwFfIMZQdWyZE-155" value="int x" style="text;strokeColor=none;align=center;fillColor=none;html=1;verticalAlign=middle;whiteSpace=wrap;rounded=0;fontSize=12;fontFamily=Helvetica;fontColor=default;" parent="PmK2E9ObwFfIMZQdWyZE-152" vertex="1">
          <mxGeometry x="21.666666666666664" y="40" width="86.66666666666666" height="30" as="geometry" />
        </mxCell>
        <mxCell id="PmK2E9ObwFfIMZQdWyZE-156" value="float vec[]" style="text;strokeColor=none;align=center;fillColor=none;html=1;verticalAlign=middle;whiteSpace=wrap;rounded=0;fontSize=12;fontFamily=Helvetica;fontColor=default;" parent="PmK2E9ObwFfIMZQdWyZE-152" vertex="1">
          <mxGeometry x="108.33333333333333" y="40" width="86.66666666666666" height="30" as="geometry" />
        </mxCell>
        <mxCell id="PmK2E9ObwFfIMZQdWyZE-157" value="void inicializarCero" style="text;strokeColor=none;align=center;fillColor=none;html=1;verticalAlign=middle;whiteSpace=wrap;rounded=0;fontSize=12;fontFamily=Helvetica;fontColor=default;" parent="PmK2E9ObwFfIMZQdWyZE-152" vertex="1">
          <mxGeometry x="65" y="10" width="130" height="10" as="geometry" />
        </mxCell>
        <mxCell id="PmK2E9ObwFfIMZQdWyZE-158" value="" style="endArrow=none;html=1;rounded=0;fontFamily=Helvetica;fontSize=12;fontColor=default;exitX=0.375;exitY=1;exitDx=0;exitDy=0;movable=0;resizable=0;rotatable=0;deletable=0;editable=0;locked=1;connectable=0;" parent="PmK2E9ObwFfIMZQdWyZE-151" source="PmK2E9ObwFfIMZQdWyZE-153" edge="1">
          <mxGeometry width="50" height="50" relative="1" as="geometry">
            <mxPoint x="43.33333333333333" y="100" as="sourcePoint" />
            <mxPoint x="97.5" y="40" as="targetPoint" />
          </mxGeometry>
        </mxCell>
        <mxCell id="PmK2E9ObwFfIMZQdWyZE-159" style="edgeStyle=orthogonalEdgeStyle;rounded=0;orthogonalLoop=1;jettySize=auto;html=1;exitX=0.5;exitY=1;exitDx=0;exitDy=0;endArrow=none;endFill=0;" parent="WIyWlLk6GJQsqaUBKTNV-1" source="PmK2E9ObwFfIMZQdWyZE-160" target="PmK2E9ObwFfIMZQdWyZE-162" edge="1">
          <mxGeometry relative="1" as="geometry" />
        </mxCell>
        <mxCell id="PmK2E9ObwFfIMZQdWyZE-160" value="int i=0:i&amp;lt;x;i++" style="swimlane;horizontal=0;whiteSpace=wrap;html=1;" parent="WIyWlLk6GJQsqaUBKTNV-1" vertex="1">
          <mxGeometry x="881.19" y="-140" width="260" height="60" as="geometry" />
        </mxCell>
        <mxCell id="PmK2E9ObwFfIMZQdWyZE-161" value="vec[i] = 0" style="whiteSpace=wrap;html=1;" parent="PmK2E9ObwFfIMZQdWyZE-160" vertex="1">
          <mxGeometry x="79.99999999999996" y="10" width="120" height="40" as="geometry" />
        </mxCell>
        <mxCell id="PmK2E9ObwFfIMZQdWyZE-162" value="F" style="ellipse;whiteSpace=wrap;html=1;" parent="WIyWlLk6GJQsqaUBKTNV-1" vertex="1">
          <mxGeometry x="991.19" y="-60" width="40" height="40" as="geometry" />
        </mxCell>
        <mxCell id="PmK2E9ObwFfIMZQdWyZE-163" value="" style="group" parent="WIyWlLk6GJQsqaUBKTNV-1" vertex="1" connectable="0">
          <mxGeometry x="881.19" y="-480" width="260" height="80" as="geometry" />
        </mxCell>
        <mxCell id="PmK2E9ObwFfIMZQdWyZE-164" value="" style="group;shadow=1;" parent="PmK2E9ObwFfIMZQdWyZE-163" vertex="1" connectable="0">
          <mxGeometry width="260" height="80" as="geometry" />
        </mxCell>
        <mxCell id="PmK2E9ObwFfIMZQdWyZE-165" value="" style="shape=hexagon;perimeter=hexagonPerimeter2;whiteSpace=wrap;html=1;fixedSize=1;size=20;" parent="PmK2E9ObwFfIMZQdWyZE-164" vertex="1">
          <mxGeometry width="260" height="80" as="geometry" />
        </mxCell>
        <mxCell id="PmK2E9ObwFfIMZQdWyZE-166" value="" style="endArrow=none;html=1;rounded=0;entryX=1;entryY=0.5;entryDx=0;entryDy=0;" parent="PmK2E9ObwFfIMZQdWyZE-164" target="PmK2E9ObwFfIMZQdWyZE-165" edge="1">
          <mxGeometry width="50" height="50" relative="1" as="geometry">
            <mxPoint y="39.860000000000014" as="sourcePoint" />
            <mxPoint x="173.33333333333331" y="39.860000000000014" as="targetPoint" />
          </mxGeometry>
        </mxCell>
        <mxCell id="PmK2E9ObwFfIMZQdWyZE-167" value="int x" style="text;strokeColor=none;align=center;fillColor=none;html=1;verticalAlign=middle;whiteSpace=wrap;rounded=0;fontSize=12;fontFamily=Helvetica;fontColor=default;" parent="PmK2E9ObwFfIMZQdWyZE-164" vertex="1">
          <mxGeometry x="21.666666666666664" y="40" width="86.66666666666666" height="30" as="geometry" />
        </mxCell>
        <mxCell id="PmK2E9ObwFfIMZQdWyZE-168" value="int vec[]" style="text;strokeColor=none;align=center;fillColor=none;html=1;verticalAlign=middle;whiteSpace=wrap;rounded=0;fontSize=12;fontFamily=Helvetica;fontColor=default;" parent="PmK2E9ObwFfIMZQdWyZE-164" vertex="1">
          <mxGeometry x="108.33333333333333" y="40" width="86.66666666666666" height="30" as="geometry" />
        </mxCell>
        <mxCell id="PmK2E9ObwFfIMZQdWyZE-169" value="void inicializarCeroEnt" style="text;strokeColor=none;align=center;fillColor=none;html=1;verticalAlign=middle;whiteSpace=wrap;rounded=0;fontSize=12;fontFamily=Helvetica;fontColor=default;" parent="PmK2E9ObwFfIMZQdWyZE-164" vertex="1">
          <mxGeometry x="65" y="10" width="130" height="10" as="geometry" />
        </mxCell>
        <mxCell id="PmK2E9ObwFfIMZQdWyZE-170" value="" style="endArrow=none;html=1;rounded=0;fontFamily=Helvetica;fontSize=12;fontColor=default;exitX=0.375;exitY=1;exitDx=0;exitDy=0;movable=0;resizable=0;rotatable=0;deletable=0;editable=0;locked=1;connectable=0;" parent="PmK2E9ObwFfIMZQdWyZE-163" source="PmK2E9ObwFfIMZQdWyZE-165" edge="1">
          <mxGeometry width="50" height="50" relative="1" as="geometry">
            <mxPoint x="43.33333333333333" y="100" as="sourcePoint" />
            <mxPoint x="97.5" y="40" as="targetPoint" />
          </mxGeometry>
        </mxCell>
        <mxCell id="PmK2E9ObwFfIMZQdWyZE-171" style="edgeStyle=orthogonalEdgeStyle;rounded=0;orthogonalLoop=1;jettySize=auto;html=1;exitX=0.5;exitY=1;exitDx=0;exitDy=0;entryX=0.5;entryY=0;entryDx=0;entryDy=0;endArrow=none;endFill=0;" parent="WIyWlLk6GJQsqaUBKTNV-1" source="PmK2E9ObwFfIMZQdWyZE-172" target="PmK2E9ObwFfIMZQdWyZE-174" edge="1">
          <mxGeometry relative="1" as="geometry" />
        </mxCell>
        <mxCell id="PmK2E9ObwFfIMZQdWyZE-172" value="int i=0:i&amp;lt;x;i++" style="swimlane;horizontal=0;whiteSpace=wrap;html=1;" parent="WIyWlLk6GJQsqaUBKTNV-1" vertex="1">
          <mxGeometry x="881.19" y="-380" width="260" height="60" as="geometry" />
        </mxCell>
        <mxCell id="PmK2E9ObwFfIMZQdWyZE-173" value="vec[i] = 0" style="whiteSpace=wrap;html=1;" parent="PmK2E9ObwFfIMZQdWyZE-172" vertex="1">
          <mxGeometry x="79.99999999999996" y="10" width="120" height="40" as="geometry" />
        </mxCell>
        <mxCell id="PmK2E9ObwFfIMZQdWyZE-174" value="F" style="ellipse;whiteSpace=wrap;html=1;" parent="WIyWlLk6GJQsqaUBKTNV-1" vertex="1">
          <mxGeometry x="991.19" y="-300" width="40" height="40" as="geometry" />
        </mxCell>
        <mxCell id="PmK2E9ObwFfIMZQdWyZE-175" style="edgeStyle=orthogonalEdgeStyle;rounded=0;orthogonalLoop=1;jettySize=auto;html=1;exitX=0.5;exitY=1;exitDx=0;exitDy=0;entryX=0.5;entryY=0;entryDx=0;entryDy=0;endArrow=none;endFill=0;" parent="WIyWlLk6GJQsqaUBKTNV-1" source="PmK2E9ObwFfIMZQdWyZE-40" target="PmK2E9ObwFfIMZQdWyZE-59" edge="1">
          <mxGeometry relative="1" as="geometry" />
        </mxCell>
        <mxCell id="PmK2E9ObwFfIMZQdWyZE-176" style="edgeStyle=orthogonalEdgeStyle;rounded=0;orthogonalLoop=1;jettySize=auto;html=1;exitX=0.5;exitY=1;exitDx=0;exitDy=0;entryX=0.5;entryY=0;entryDx=0;entryDy=0;endArrow=none;endFill=0;" parent="WIyWlLk6GJQsqaUBKTNV-1" source="PmK2E9ObwFfIMZQdWyZE-61" target="PmK2E9ObwFfIMZQdWyZE-115" edge="1">
          <mxGeometry relative="1" as="geometry" />
        </mxCell>
        <mxCell id="PmK2E9ObwFfIMZQdWyZE-177" style="edgeStyle=orthogonalEdgeStyle;rounded=0;orthogonalLoop=1;jettySize=auto;html=1;exitX=0.5;exitY=1;exitDx=0;exitDy=0;entryX=0.5;entryY=0;entryDx=0;entryDy=0;endArrow=none;endFill=0;" parent="WIyWlLk6GJQsqaUBKTNV-1" source="PmK2E9ObwFfIMZQdWyZE-117" target="PmK2E9ObwFfIMZQdWyZE-124" edge="1">
          <mxGeometry relative="1" as="geometry" />
        </mxCell>
        <mxCell id="PmK2E9ObwFfIMZQdWyZE-178" style="edgeStyle=orthogonalEdgeStyle;rounded=0;orthogonalLoop=1;jettySize=auto;html=1;exitX=0.5;exitY=1;exitDx=0;exitDy=0;entryX=0.5;entryY=0;entryDx=0;entryDy=0;endArrow=none;endFill=0;" parent="WIyWlLk6GJQsqaUBKTNV-1" source="PmK2E9ObwFfIMZQdWyZE-47" target="PmK2E9ObwFfIMZQdWyZE-92" edge="1">
          <mxGeometry relative="1" as="geometry" />
        </mxCell>
        <mxCell id="PmK2E9ObwFfIMZQdWyZE-179" style="edgeStyle=orthogonalEdgeStyle;rounded=0;orthogonalLoop=1;jettySize=auto;html=1;exitX=0.5;exitY=1;exitDx=0;exitDy=0;entryX=0.5;entryY=0;entryDx=0;entryDy=0;endArrow=none;endFill=0;" parent="WIyWlLk6GJQsqaUBKTNV-1" source="PmK2E9ObwFfIMZQdWyZE-92" target="PmK2E9ObwFfIMZQdWyZE-150" edge="1">
          <mxGeometry relative="1" as="geometry" />
        </mxCell>
        <mxCell id="PmK2E9ObwFfIMZQdWyZE-180" style="edgeStyle=orthogonalEdgeStyle;rounded=0;orthogonalLoop=1;jettySize=auto;html=1;exitX=0.5;exitY=1;exitDx=0;exitDy=0;entryX=0.5;entryY=0;entryDx=0;entryDy=0;endArrow=none;endFill=0;" parent="WIyWlLk6GJQsqaUBKTNV-1" source="PmK2E9ObwFfIMZQdWyZE-165" target="PmK2E9ObwFfIMZQdWyZE-172" edge="1">
          <mxGeometry relative="1" as="geometry" />
        </mxCell>
        <mxCell id="PmK2E9ObwFfIMZQdWyZE-181" style="edgeStyle=orthogonalEdgeStyle;rounded=0;orthogonalLoop=1;jettySize=auto;html=1;exitX=0.5;exitY=1;exitDx=0;exitDy=0;entryX=0.5;entryY=0;entryDx=0;entryDy=0;endArrow=none;endFill=0;" parent="WIyWlLk6GJQsqaUBKTNV-1" source="PmK2E9ObwFfIMZQdWyZE-153" target="PmK2E9ObwFfIMZQdWyZE-160" edge="1">
          <mxGeometry relative="1" as="geometry" />
        </mxCell>
        <mxCell id="PmK2E9ObwFfIMZQdWyZE-182" style="edgeStyle=orthogonalEdgeStyle;rounded=0;orthogonalLoop=1;jettySize=auto;html=1;exitX=0.5;exitY=1;exitDx=0;exitDy=0;entryX=0.5;entryY=0;entryDx=0;entryDy=0;endArrow=none;endFill=0;" parent="WIyWlLk6GJQsqaUBKTNV-1" source="PmK2E9ObwFfIMZQdWyZE-26" target="PmK2E9ObwFfIMZQdWyZE-2" edge="1">
          <mxGeometry relative="1" as="geometry" />
        </mxCell>
        <mxCell id="PmK2E9ObwFfIMZQdWyZE-183" style="edgeStyle=orthogonalEdgeStyle;rounded=0;orthogonalLoop=1;jettySize=auto;html=1;exitX=0.5;exitY=1;exitDx=0;exitDy=0;entryX=0.5;entryY=1;entryDx=0;entryDy=0;endArrow=none;endFill=0;" parent="WIyWlLk6GJQsqaUBKTNV-1" source="PmK2E9ObwFfIMZQdWyZE-33" target="PmK2E9ObwFfIMZQdWyZE-113" edge="1">
          <mxGeometry relative="1" as="geometry" />
        </mxCell>
        <mxCell id="PmK2E9ObwFfIMZQdWyZE-184" value="" style="edgeStyle=orthogonalEdgeStyle;rounded=0;orthogonalLoop=1;jettySize=auto;html=1;endArrow=none;endFill=0;" parent="WIyWlLk6GJQsqaUBKTNV-1" source="PmK2E9ObwFfIMZQdWyZE-99" target="PmK2E9ObwFfIMZQdWyZE-107" edge="1">
          <mxGeometry relative="1" as="geometry" />
        </mxCell>
        <mxCell id="PmK2E9ObwFfIMZQdWyZE-185" style="edgeStyle=orthogonalEdgeStyle;rounded=0;orthogonalLoop=1;jettySize=auto;html=1;exitX=0.5;exitY=1;exitDx=0;exitDy=0;entryX=0.5;entryY=0;entryDx=0;entryDy=0;endArrow=none;endFill=0;" parent="WIyWlLk6GJQsqaUBKTNV-1" source="PmK2E9ObwFfIMZQdWyZE-132" target="PmK2E9ObwFfIMZQdWyZE-139" edge="1">
          <mxGeometry relative="1" as="geometry" />
        </mxCell>
        <mxCell id="PmK2E9ObwFfIMZQdWyZE-186" value="F" style="ellipse;whiteSpace=wrap;html=1;" parent="WIyWlLk6GJQsqaUBKTNV-1" vertex="1">
          <mxGeometry x="1016.5" y="2770" width="60" height="60" as="geometry" />
        </mxCell>
        <mxCell id="PmK2E9ObwFfIMZQdWyZE-187" value="F" style="ellipse;whiteSpace=wrap;html=1;" parent="WIyWlLk6GJQsqaUBKTNV-1" vertex="1">
          <mxGeometry x="330" y="1870" width="60" height="60" as="geometry" />
        </mxCell>
        <mxCell id="PmK2E9ObwFfIMZQdWyZE-188" value="" style="group" parent="WIyWlLk6GJQsqaUBKTNV-1" vertex="1" connectable="0">
          <mxGeometry x="840" y="2870" width="420" height="80" as="geometry" />
        </mxCell>
        <mxCell id="PmK2E9ObwFfIMZQdWyZE-189" value="" style="group;shadow=1;" parent="PmK2E9ObwFfIMZQdWyZE-188" vertex="1" connectable="0">
          <mxGeometry width="420" height="80" as="geometry" />
        </mxCell>
        <mxCell id="PmK2E9ObwFfIMZQdWyZE-190" value="" style="shape=hexagon;perimeter=hexagonPerimeter2;whiteSpace=wrap;html=1;fixedSize=1;size=20;" parent="PmK2E9ObwFfIMZQdWyZE-189" vertex="1">
          <mxGeometry width="420" height="80" as="geometry" />
        </mxCell>
        <mxCell id="PmK2E9ObwFfIMZQdWyZE-191" value="" style="endArrow=none;html=1;rounded=0;entryX=1;entryY=0.5;entryDx=0;entryDy=0;" parent="PmK2E9ObwFfIMZQdWyZE-189" target="PmK2E9ObwFfIMZQdWyZE-190" edge="1">
          <mxGeometry width="50" height="50" relative="1" as="geometry">
            <mxPoint y="39.860000000000014" as="sourcePoint" />
            <mxPoint x="279.99999999999994" y="39.860000000000014" as="targetPoint" />
          </mxGeometry>
        </mxCell>
        <mxCell id="PmK2E9ObwFfIMZQdWyZE-192" value="int cant_pasajes, int nro_vendedor, int cod_vuelo" style="text;strokeColor=none;align=center;fillColor=none;html=1;verticalAlign=middle;whiteSpace=wrap;rounded=0;fontSize=12;fontFamily=Helvetica;fontColor=default;" parent="PmK2E9ObwFfIMZQdWyZE-189" vertex="1">
          <mxGeometry y="40" width="158.8" height="30" as="geometry" />
        </mxCell>
        <mxCell id="PmK2E9ObwFfIMZQdWyZE-193" value="float v[8], float v_costo[50]" style="text;strokeColor=none;align=center;fillColor=none;html=1;verticalAlign=middle;whiteSpace=wrap;rounded=0;fontSize=12;fontFamily=Helvetica;fontColor=default;" parent="PmK2E9ObwFfIMZQdWyZE-189" vertex="1">
          <mxGeometry x="194.32552491778395" y="40" width="139.99999999999997" height="30" as="geometry" />
        </mxCell>
        <mxCell id="PmK2E9ObwFfIMZQdWyZE-194" value="void recaucionVendedor" style="text;strokeColor=none;align=center;fillColor=none;html=1;verticalAlign=middle;whiteSpace=wrap;rounded=0;fontSize=12;fontFamily=Helvetica;fontColor=default;" parent="PmK2E9ObwFfIMZQdWyZE-189" vertex="1">
          <mxGeometry x="105" y="10" width="210" height="10" as="geometry" />
        </mxCell>
        <mxCell id="PmK2E9ObwFfIMZQdWyZE-195" value="" style="endArrow=none;html=1;rounded=0;fontFamily=Helvetica;fontSize=12;fontColor=default;exitX=0.375;exitY=1;exitDx=0;exitDy=0;movable=0;resizable=0;rotatable=0;deletable=0;editable=0;locked=1;connectable=0;" parent="PmK2E9ObwFfIMZQdWyZE-188" source="PmK2E9ObwFfIMZQdWyZE-190" edge="1">
          <mxGeometry width="50" height="50" relative="1" as="geometry">
            <mxPoint x="69.99999999999999" y="100" as="sourcePoint" />
            <mxPoint x="157.50000000000003" y="40" as="targetPoint" />
          </mxGeometry>
        </mxCell>
        <mxCell id="PmK2E9ObwFfIMZQdWyZE-196" value="float recaudacionVendedor[8]" style="whiteSpace=wrap;html=1;" parent="WIyWlLk6GJQsqaUBKTNV-1" vertex="1">
          <mxGeometry x="285.75" y="240" width="161.13" height="40" as="geometry" />
        </mxCell>
        <mxCell id="PmK2E9ObwFfIMZQdWyZE-197" value="" style="group;shadow=1;align=center;verticalAlign=middle;horizontal=1;" parent="WIyWlLk6GJQsqaUBKTNV-1" vertex="1" connectable="0">
          <mxGeometry x="232.5" y="300" width="260" height="80" as="geometry" />
        </mxCell>
        <mxCell id="PmK2E9ObwFfIMZQdWyZE-198" value="" style="shape=hexagon;perimeter=hexagonPerimeter2;whiteSpace=wrap;html=1;fixedSize=1;size=20;align=center;verticalAlign=middle;horizontal=1;" parent="PmK2E9ObwFfIMZQdWyZE-197" vertex="1">
          <mxGeometry width="260" height="80" as="geometry" />
        </mxCell>
        <mxCell id="PmK2E9ObwFfIMZQdWyZE-199" value="" style="endArrow=none;html=1;rounded=0;entryX=1;entryY=0.5;entryDx=0;entryDy=0;align=center;verticalAlign=middle;horizontal=1;" parent="PmK2E9ObwFfIMZQdWyZE-197" target="PmK2E9ObwFfIMZQdWyZE-198" edge="1">
          <mxGeometry width="50" height="50" relative="1" as="geometry">
            <mxPoint y="39.860000000000014" as="sourcePoint" />
            <mxPoint x="173.33333333333331" y="39.860000000000014" as="targetPoint" />
          </mxGeometry>
        </mxCell>
        <mxCell id="PmK2E9ObwFfIMZQdWyZE-200" value="8" style="text;strokeColor=none;align=center;fillColor=none;html=1;verticalAlign=middle;whiteSpace=wrap;rounded=0;fontSize=12;fontFamily=Helvetica;fontColor=default;horizontal=1;" parent="PmK2E9ObwFfIMZQdWyZE-197" vertex="1">
          <mxGeometry x="21.666666666666664" y="40" width="86.66666666666666" height="30" as="geometry" />
        </mxCell>
        <mxCell id="PmK2E9ObwFfIMZQdWyZE-201" value="recaudacionVendedor" style="text;strokeColor=none;align=center;fillColor=none;html=1;verticalAlign=middle;whiteSpace=wrap;rounded=0;fontSize=12;fontFamily=Helvetica;fontColor=default;horizontal=1;" parent="PmK2E9ObwFfIMZQdWyZE-197" vertex="1">
          <mxGeometry x="127.50333333333333" y="40" width="86.66666666666666" height="30" as="geometry" />
        </mxCell>
        <mxCell id="PmK2E9ObwFfIMZQdWyZE-202" value="inicializarCero" style="text;strokeColor=none;align=center;fillColor=none;html=1;verticalAlign=middle;whiteSpace=wrap;rounded=0;fontSize=12;fontFamily=Helvetica;fontColor=default;horizontal=1;" parent="PmK2E9ObwFfIMZQdWyZE-197" vertex="1">
          <mxGeometry x="65" y="10" width="130" height="10" as="geometry" />
        </mxCell>
        <mxCell id="PmK2E9ObwFfIMZQdWyZE-203" value="" style="endArrow=none;html=1;rounded=0;exitX=0.415;exitY=0.995;exitDx=0;exitDy=0;exitPerimeter=0;align=center;verticalAlign=middle;horizontal=1;" parent="PmK2E9ObwFfIMZQdWyZE-197" source="PmK2E9ObwFfIMZQdWyZE-198" edge="1">
          <mxGeometry width="50" height="50" relative="1" as="geometry">
            <mxPoint x="125.16000000000003" y="60" as="sourcePoint" />
            <mxPoint x="108.32952380952389" y="40" as="targetPoint" />
          </mxGeometry>
        </mxCell>
        <mxCell id="PmK2E9ObwFfIMZQdWyZE-204" style="edgeStyle=orthogonalEdgeStyle;rounded=0;orthogonalLoop=1;jettySize=auto;html=1;exitX=0.5;exitY=1;exitDx=0;exitDy=0;endArrow=none;endFill=0;" parent="WIyWlLk6GJQsqaUBKTNV-1" source="PmK2E9ObwFfIMZQdWyZE-205" target="PmK2E9ObwFfIMZQdWyZE-206" edge="1">
          <mxGeometry relative="1" as="geometry" />
        </mxCell>
        <mxCell id="PmK2E9ObwFfIMZQdWyZE-205" value="v[num_vendedor - 1] += (cant_pasajes * v_costo[cod_vuelo - 1]) * 0.05" style="whiteSpace=wrap;html=1;" parent="WIyWlLk6GJQsqaUBKTNV-1" vertex="1">
          <mxGeometry x="945.0000000000001" y="2990" width="210" height="50" as="geometry" />
        </mxCell>
        <mxCell id="PmK2E9ObwFfIMZQdWyZE-206" value="F" style="ellipse;whiteSpace=wrap;html=1;" parent="WIyWlLk6GJQsqaUBKTNV-1" vertex="1">
          <mxGeometry x="1025" y="3070" width="50" height="50" as="geometry" />
        </mxCell>
        <mxCell id="PmK2E9ObwFfIMZQdWyZE-207" style="edgeStyle=orthogonalEdgeStyle;rounded=0;orthogonalLoop=1;jettySize=auto;html=1;exitX=0.5;exitY=1;exitDx=0;exitDy=0;entryX=0.5;entryY=0;entryDx=0;entryDy=0;endArrow=none;endFill=0;" parent="WIyWlLk6GJQsqaUBKTNV-1" source="PmK2E9ObwFfIMZQdWyZE-190" target="PmK2E9ObwFfIMZQdWyZE-205" edge="1">
          <mxGeometry relative="1" as="geometry" />
        </mxCell>
        <mxCell id="PmK2E9ObwFfIMZQdWyZE-208" value="" style="group" parent="WIyWlLk6GJQsqaUBKTNV-1" vertex="1" connectable="0">
          <mxGeometry x="800" y="910" width="420" height="80" as="geometry" />
        </mxCell>
        <mxCell id="PmK2E9ObwFfIMZQdWyZE-209" value="" style="group;shadow=1;" parent="PmK2E9ObwFfIMZQdWyZE-208" vertex="1" connectable="0">
          <mxGeometry width="420" height="80" as="geometry" />
        </mxCell>
        <mxCell id="PmK2E9ObwFfIMZQdWyZE-210" value="" style="shape=hexagon;perimeter=hexagonPerimeter2;whiteSpace=wrap;html=1;fixedSize=1;size=20;" parent="PmK2E9ObwFfIMZQdWyZE-209" vertex="1">
          <mxGeometry width="420" height="80" as="geometry" />
        </mxCell>
        <mxCell id="PmK2E9ObwFfIMZQdWyZE-211" value="" style="endArrow=none;html=1;rounded=0;entryX=1;entryY=0.5;entryDx=0;entryDy=0;" parent="PmK2E9ObwFfIMZQdWyZE-209" target="PmK2E9ObwFfIMZQdWyZE-210" edge="1">
          <mxGeometry width="50" height="50" relative="1" as="geometry">
            <mxPoint y="39.860000000000014" as="sourcePoint" />
            <mxPoint x="279.99999999999994" y="39.860000000000014" as="targetPoint" />
          </mxGeometry>
        </mxCell>
        <mxCell id="PmK2E9ObwFfIMZQdWyZE-212" value="cant_pasajes,&amp;nbsp; nro_vendedor, cod_vuelo" style="text;strokeColor=none;align=center;fillColor=none;html=1;verticalAlign=middle;whiteSpace=wrap;rounded=0;fontSize=12;fontFamily=Helvetica;fontColor=default;" parent="PmK2E9ObwFfIMZQdWyZE-209" vertex="1">
          <mxGeometry x="18.801791044776117" y="40" width="139.99999999999997" height="30" as="geometry" />
        </mxCell>
        <mxCell id="PmK2E9ObwFfIMZQdWyZE-213" value="recaudacionVendedor, v_costo" style="text;strokeColor=none;align=center;fillColor=none;html=1;verticalAlign=middle;whiteSpace=wrap;rounded=0;fontSize=12;fontFamily=Helvetica;fontColor=default;" parent="PmK2E9ObwFfIMZQdWyZE-209" vertex="1">
          <mxGeometry x="194.32552491778395" y="40" width="139.99999999999997" height="30" as="geometry" />
        </mxCell>
        <mxCell id="PmK2E9ObwFfIMZQdWyZE-214" value="recaucionVendedor" style="text;strokeColor=none;align=center;fillColor=none;html=1;verticalAlign=middle;whiteSpace=wrap;rounded=0;fontSize=12;fontFamily=Helvetica;fontColor=default;" parent="PmK2E9ObwFfIMZQdWyZE-209" vertex="1">
          <mxGeometry x="105" y="10" width="210" height="10" as="geometry" />
        </mxCell>
        <mxCell id="PmK2E9ObwFfIMZQdWyZE-215" value="" style="endArrow=none;html=1;rounded=0;fontFamily=Helvetica;fontSize=12;fontColor=default;exitX=0.375;exitY=1;exitDx=0;exitDy=0;movable=0;resizable=0;rotatable=0;deletable=0;editable=0;locked=1;connectable=0;" parent="PmK2E9ObwFfIMZQdWyZE-208" source="PmK2E9ObwFfIMZQdWyZE-210" edge="1">
          <mxGeometry width="50" height="50" relative="1" as="geometry">
            <mxPoint x="69.99999999999999" y="100" as="sourcePoint" />
            <mxPoint x="157.50000000000003" y="40" as="targetPoint" />
          </mxGeometry>
        </mxCell>
        <mxCell id="PmK2E9ObwFfIMZQdWyZE-216" value="" style="group" parent="WIyWlLk6GJQsqaUBKTNV-1" vertex="1" connectable="0">
          <mxGeometry x="901.19" y="3140" width="300" height="80" as="geometry" />
        </mxCell>
        <mxCell id="PmK2E9ObwFfIMZQdWyZE-217" value="" style="group;shadow=1;" parent="PmK2E9ObwFfIMZQdWyZE-216" vertex="1" connectable="0">
          <mxGeometry width="300" height="80" as="geometry" />
        </mxCell>
        <mxCell id="PmK2E9ObwFfIMZQdWyZE-218" style="edgeStyle=orthogonalEdgeStyle;rounded=0;orthogonalLoop=1;jettySize=auto;html=1;exitX=0.5;exitY=1;exitDx=0;exitDy=0;endArrow=none;endFill=0;" parent="PmK2E9ObwFfIMZQdWyZE-217" source="PmK2E9ObwFfIMZQdWyZE-219" edge="1">
          <mxGeometry relative="1" as="geometry">
            <mxPoint x="150" y="110" as="targetPoint" />
          </mxGeometry>
        </mxCell>
        <mxCell id="PmK2E9ObwFfIMZQdWyZE-219" value="" style="shape=hexagon;perimeter=hexagonPerimeter2;whiteSpace=wrap;html=1;fixedSize=1;size=20;" parent="PmK2E9ObwFfIMZQdWyZE-217" vertex="1">
          <mxGeometry width="300" height="80" as="geometry" />
        </mxCell>
        <mxCell id="PmK2E9ObwFfIMZQdWyZE-220" value="" style="endArrow=none;html=1;rounded=0;entryX=1;entryY=0.5;entryDx=0;entryDy=0;" parent="PmK2E9ObwFfIMZQdWyZE-217" target="PmK2E9ObwFfIMZQdWyZE-219" edge="1">
          <mxGeometry width="50" height="50" relative="1" as="geometry">
            <mxPoint y="39.860000000000014" as="sourcePoint" />
            <mxPoint x="199.99999999999997" y="39.860000000000014" as="targetPoint" />
          </mxGeometry>
        </mxCell>
        <mxCell id="PmK2E9ObwFfIMZQdWyZE-221" value="float recaudacionVendedor[8]" style="text;strokeColor=none;align=center;fillColor=none;html=1;verticalAlign=middle;whiteSpace=wrap;rounded=0;fontSize=12;fontFamily=Helvetica;fontColor=default;" parent="PmK2E9ObwFfIMZQdWyZE-217" vertex="1">
          <mxGeometry x="150" y="40" width="99.99999999999999" height="30" as="geometry" />
        </mxCell>
        <mxCell id="PmK2E9ObwFfIMZQdWyZE-222" value="void mostrarPuntoC" style="text;strokeColor=none;align=center;fillColor=none;html=1;verticalAlign=middle;whiteSpace=wrap;rounded=0;fontSize=12;fontFamily=Helvetica;fontColor=default;" parent="PmK2E9ObwFfIMZQdWyZE-217" vertex="1">
          <mxGeometry x="75" y="10" width="150" height="10" as="geometry" />
        </mxCell>
        <mxCell id="PmK2E9ObwFfIMZQdWyZE-223" value="" style="endArrow=none;html=1;rounded=0;fontFamily=Helvetica;fontSize=12;fontColor=default;exitX=0.375;exitY=1;exitDx=0;exitDy=0;movable=0;resizable=0;rotatable=0;deletable=0;editable=0;locked=1;connectable=0;" parent="PmK2E9ObwFfIMZQdWyZE-216" source="PmK2E9ObwFfIMZQdWyZE-219" edge="1">
          <mxGeometry width="50" height="50" relative="1" as="geometry">
            <mxPoint x="49.99999999999999" y="100" as="sourcePoint" />
            <mxPoint x="112.49999999999999" y="40" as="targetPoint" />
          </mxGeometry>
        </mxCell>
        <mxCell id="PmK2E9ObwFfIMZQdWyZE-224" style="edgeStyle=orthogonalEdgeStyle;rounded=0;orthogonalLoop=1;jettySize=auto;html=1;exitX=0.5;exitY=1;exitDx=0;exitDy=0;entryX=0.5;entryY=0;entryDx=0;entryDy=0;endArrow=none;endFill=0;" parent="WIyWlLk6GJQsqaUBKTNV-1" source="PmK2E9ObwFfIMZQdWyZE-225" target="PmK2E9ObwFfIMZQdWyZE-230" edge="1">
          <mxGeometry relative="1" as="geometry" />
        </mxCell>
        <mxCell id="PmK2E9ObwFfIMZQdWyZE-225" value="int i = 7; i&amp;gt;=0;i--" style="swimlane;horizontal=0;whiteSpace=wrap;html=1;" parent="WIyWlLk6GJQsqaUBKTNV-1" vertex="1">
          <mxGeometry x="820" y="3250" width="460" height="200" as="geometry" />
        </mxCell>
        <mxCell id="PmK2E9ObwFfIMZQdWyZE-226" value="recaudacionVendedor[i] != 0" style="rhombus;whiteSpace=wrap;html=1;" parent="PmK2E9ObwFfIMZQdWyZE-225" vertex="1">
          <mxGeometry x="124.99999999999994" y="10" width="210" height="80" as="geometry" />
        </mxCell>
        <mxCell id="PmK2E9ObwFfIMZQdWyZE-227" value="&quot;Vendedor: &quot; + i + 1 + &quot;Comision: &quot; + recaudacionVendedor[ i]" style="shape=trapezoid;perimeter=trapezoidPerimeter;whiteSpace=wrap;html=1;fixedSize=1;" parent="PmK2E9ObwFfIMZQdWyZE-225" vertex="1">
          <mxGeometry x="41.19" y="110" width="158.81" height="60" as="geometry" />
        </mxCell>
        <mxCell id="PmK2E9ObwFfIMZQdWyZE-228" style="edgeStyle=orthogonalEdgeStyle;rounded=0;orthogonalLoop=1;jettySize=auto;html=1;exitX=0;exitY=0.5;exitDx=0;exitDy=0;entryX=0.37;entryY=0;entryDx=0;entryDy=0;entryPerimeter=0;endArrow=none;endFill=0;" parent="PmK2E9ObwFfIMZQdWyZE-225" source="PmK2E9ObwFfIMZQdWyZE-226" target="PmK2E9ObwFfIMZQdWyZE-227" edge="1">
          <mxGeometry relative="1" as="geometry" />
        </mxCell>
        <mxCell id="PmK2E9ObwFfIMZQdWyZE-229" style="edgeStyle=orthogonalEdgeStyle;rounded=0;orthogonalLoop=1;jettySize=auto;html=1;exitX=1;exitY=0.5;exitDx=0;exitDy=0;entryX=0.39;entryY=1;entryDx=0;entryDy=0;entryPerimeter=0;endArrow=none;endFill=0;" parent="PmK2E9ObwFfIMZQdWyZE-225" source="PmK2E9ObwFfIMZQdWyZE-226" target="PmK2E9ObwFfIMZQdWyZE-227" edge="1">
          <mxGeometry relative="1" as="geometry" />
        </mxCell>
        <mxCell id="PmK2E9ObwFfIMZQdWyZE-230" value="F" style="ellipse;whiteSpace=wrap;html=1;" parent="WIyWlLk6GJQsqaUBKTNV-1" vertex="1">
          <mxGeometry x="1020" y="3470" width="60" height="60" as="geometry" />
        </mxCell>
        <mxCell id="PmK2E9ObwFfIMZQdWyZE-231" value="" style="group" parent="WIyWlLk6GJQsqaUBKTNV-1" vertex="1" connectable="0">
          <mxGeometry x="210" y="1410" width="300" height="80" as="geometry" />
        </mxCell>
        <mxCell id="PmK2E9ObwFfIMZQdWyZE-232" value="" style="group;shadow=1;" parent="PmK2E9ObwFfIMZQdWyZE-231" vertex="1" connectable="0">
          <mxGeometry width="300" height="80" as="geometry" />
        </mxCell>
        <mxCell id="PmK2E9ObwFfIMZQdWyZE-233" value="" style="shape=hexagon;perimeter=hexagonPerimeter2;whiteSpace=wrap;html=1;fixedSize=1;size=20;" parent="PmK2E9ObwFfIMZQdWyZE-232" vertex="1">
          <mxGeometry width="300" height="80" as="geometry" />
        </mxCell>
        <mxCell id="PmK2E9ObwFfIMZQdWyZE-234" value="" style="endArrow=none;html=1;rounded=0;entryX=1;entryY=0.5;entryDx=0;entryDy=0;" parent="PmK2E9ObwFfIMZQdWyZE-232" target="PmK2E9ObwFfIMZQdWyZE-233" edge="1">
          <mxGeometry width="50" height="50" relative="1" as="geometry">
            <mxPoint y="39.860000000000014" as="sourcePoint" />
            <mxPoint x="199.99999999999997" y="39.860000000000014" as="targetPoint" />
          </mxGeometry>
        </mxCell>
        <mxCell id="PmK2E9ObwFfIMZQdWyZE-235" value="&amp;nbsp;recaudacionVendedor" style="text;strokeColor=none;align=center;fillColor=none;html=1;verticalAlign=middle;whiteSpace=wrap;rounded=0;fontSize=12;fontFamily=Helvetica;fontColor=default;" parent="PmK2E9ObwFfIMZQdWyZE-232" vertex="1">
          <mxGeometry x="150" y="40" width="99.99999999999999" height="30" as="geometry" />
        </mxCell>
        <mxCell id="PmK2E9ObwFfIMZQdWyZE-236" value="&amp;nbsp;mostrarPuntoC" style="text;strokeColor=none;align=center;fillColor=none;html=1;verticalAlign=middle;whiteSpace=wrap;rounded=0;fontSize=12;fontFamily=Helvetica;fontColor=default;" parent="PmK2E9ObwFfIMZQdWyZE-232" vertex="1">
          <mxGeometry x="75" y="10" width="150" height="10" as="geometry" />
        </mxCell>
        <mxCell id="PmK2E9ObwFfIMZQdWyZE-237" value="" style="endArrow=none;html=1;rounded=0;fontFamily=Helvetica;fontSize=12;fontColor=default;exitX=0.375;exitY=1;exitDx=0;exitDy=0;movable=0;resizable=0;rotatable=0;deletable=0;editable=0;locked=1;connectable=0;" parent="PmK2E9ObwFfIMZQdWyZE-231" source="PmK2E9ObwFfIMZQdWyZE-233" edge="1">
          <mxGeometry width="50" height="50" relative="1" as="geometry">
            <mxPoint x="49.99999999999999" y="100" as="sourcePoint" />
            <mxPoint x="112.49999999999999" y="40" as="targetPoint" />
          </mxGeometry>
        </mxCell>
        <mxCell id="PmK2E9ObwFfIMZQdWyZE-238" value="" style="group" parent="WIyWlLk6GJQsqaUBKTNV-1" vertex="1" connectable="0">
          <mxGeometry x="793.1" y="3540" width="500" height="100" as="geometry" />
        </mxCell>
        <mxCell id="PmK2E9ObwFfIMZQdWyZE-239" value="" style="group;shadow=1;" parent="PmK2E9ObwFfIMZQdWyZE-238" vertex="1" connectable="0">
          <mxGeometry width="500" height="100" as="geometry" />
        </mxCell>
        <mxCell id="PmK2E9ObwFfIMZQdWyZE-240" value="" style="shape=hexagon;perimeter=hexagonPerimeter2;whiteSpace=wrap;html=1;fixedSize=1;size=20;" parent="PmK2E9ObwFfIMZQdWyZE-239" vertex="1">
          <mxGeometry width="500" height="100" as="geometry" />
        </mxCell>
        <mxCell id="PmK2E9ObwFfIMZQdWyZE-241" value="" style="endArrow=none;html=1;rounded=0;entryX=1;entryY=0.5;entryDx=0;entryDy=0;" parent="PmK2E9ObwFfIMZQdWyZE-239" target="PmK2E9ObwFfIMZQdWyZE-240" edge="1">
          <mxGeometry width="50" height="50" relative="1" as="geometry">
            <mxPoint y="49.82500000000002" as="sourcePoint" />
            <mxPoint x="333.3333333333333" y="49.82500000000002" as="targetPoint" />
          </mxGeometry>
        </mxCell>
        <mxCell id="PmK2E9ObwFfIMZQdWyZE-242" value="int nro_cliente, int cant_pasajes, int cod_vuelo, int nro_vendedor" style="text;strokeColor=none;align=center;fillColor=none;html=1;verticalAlign=middle;whiteSpace=wrap;rounded=0;fontSize=12;fontFamily=Helvetica;fontColor=default;" parent="PmK2E9ObwFfIMZQdWyZE-239" vertex="1">
          <mxGeometry x="10" y="50" width="180" height="37.5" as="geometry" />
        </mxCell>
        <mxCell id="PmK2E9ObwFfIMZQdWyZE-243" value="float v_costo[50], int v[8], float v_ventaMax[8]" style="text;strokeColor=none;align=center;fillColor=none;html=1;verticalAlign=middle;whiteSpace=wrap;rounded=0;fontSize=12;fontFamily=Helvetica;fontColor=default;" parent="PmK2E9ObwFfIMZQdWyZE-239" vertex="1">
          <mxGeometry x="208.32692307692304" y="50" width="233.98076923076925" height="37.5" as="geometry" />
        </mxCell>
        <mxCell id="PmK2E9ObwFfIMZQdWyZE-244" value="void vendedorPuntoD" style="text;strokeColor=none;align=center;fillColor=none;html=1;verticalAlign=middle;whiteSpace=wrap;rounded=0;fontSize=12;fontFamily=Helvetica;fontColor=default;" parent="PmK2E9ObwFfIMZQdWyZE-239" vertex="1">
          <mxGeometry x="125" y="12.5" width="250" height="12.5" as="geometry" />
        </mxCell>
        <mxCell id="PmK2E9ObwFfIMZQdWyZE-245" value="" style="endArrow=none;html=1;rounded=0;fontFamily=Helvetica;fontSize=12;fontColor=default;exitX=0.375;exitY=1;exitDx=0;exitDy=0;movable=0;resizable=0;rotatable=0;deletable=0;editable=0;locked=1;connectable=0;" parent="PmK2E9ObwFfIMZQdWyZE-238" source="PmK2E9ObwFfIMZQdWyZE-240" edge="1">
          <mxGeometry width="50" height="50" relative="1" as="geometry">
            <mxPoint x="83.33333333333333" y="125" as="sourcePoint" />
            <mxPoint x="187.49999999999997" y="50" as="targetPoint" />
          </mxGeometry>
        </mxCell>
        <mxCell id="PmK2E9ObwFfIMZQdWyZE-246" value="int vendedorPuntoD[8]" style="whiteSpace=wrap;html=1;" parent="WIyWlLk6GJQsqaUBKTNV-1" vertex="1">
          <mxGeometry x="290" y="400" width="140" height="30" as="geometry" />
        </mxCell>
        <mxCell id="PmK2E9ObwFfIMZQdWyZE-247" value="" style="group;shadow=1;align=center;verticalAlign=middle;horizontal=1;" parent="WIyWlLk6GJQsqaUBKTNV-1" vertex="1" connectable="0">
          <mxGeometry x="241.38" y="450" width="260" height="80" as="geometry" />
        </mxCell>
        <mxCell id="PmK2E9ObwFfIMZQdWyZE-248" value="" style="shape=hexagon;perimeter=hexagonPerimeter2;whiteSpace=wrap;html=1;fixedSize=1;size=20;align=center;verticalAlign=middle;horizontal=1;" parent="PmK2E9ObwFfIMZQdWyZE-247" vertex="1">
          <mxGeometry width="260" height="80" as="geometry" />
        </mxCell>
        <mxCell id="PmK2E9ObwFfIMZQdWyZE-249" value="" style="endArrow=none;html=1;rounded=0;entryX=1;entryY=0.5;entryDx=0;entryDy=0;align=center;verticalAlign=middle;horizontal=1;" parent="PmK2E9ObwFfIMZQdWyZE-247" target="PmK2E9ObwFfIMZQdWyZE-248" edge="1">
          <mxGeometry width="50" height="50" relative="1" as="geometry">
            <mxPoint y="39.860000000000014" as="sourcePoint" />
            <mxPoint x="173.33333333333331" y="39.860000000000014" as="targetPoint" />
          </mxGeometry>
        </mxCell>
        <mxCell id="PmK2E9ObwFfIMZQdWyZE-250" value="8" style="text;strokeColor=none;align=center;fillColor=none;html=1;verticalAlign=middle;whiteSpace=wrap;rounded=0;fontSize=12;fontFamily=Helvetica;fontColor=default;horizontal=1;" parent="PmK2E9ObwFfIMZQdWyZE-247" vertex="1">
          <mxGeometry x="21.666666666666664" y="40" width="86.66666666666666" height="30" as="geometry" />
        </mxCell>
        <mxCell id="PmK2E9ObwFfIMZQdWyZE-251" value="vendedorPuntoD" style="text;strokeColor=none;align=center;fillColor=none;html=1;verticalAlign=middle;whiteSpace=wrap;rounded=0;fontSize=12;fontFamily=Helvetica;fontColor=default;horizontal=1;" parent="PmK2E9ObwFfIMZQdWyZE-247" vertex="1">
          <mxGeometry x="120.00333333333333" y="40" width="86.66666666666666" height="30" as="geometry" />
        </mxCell>
        <mxCell id="PmK2E9ObwFfIMZQdWyZE-252" value="inicializarCeroEnt" style="text;strokeColor=none;align=center;fillColor=none;html=1;verticalAlign=middle;whiteSpace=wrap;rounded=0;fontSize=12;fontFamily=Helvetica;fontColor=default;horizontal=1;" parent="PmK2E9ObwFfIMZQdWyZE-247" vertex="1">
          <mxGeometry x="65" y="10" width="130" height="10" as="geometry" />
        </mxCell>
        <mxCell id="PmK2E9ObwFfIMZQdWyZE-253" value="" style="endArrow=none;html=1;rounded=0;exitX=0.415;exitY=0.995;exitDx=0;exitDy=0;exitPerimeter=0;align=center;verticalAlign=middle;horizontal=1;" parent="PmK2E9ObwFfIMZQdWyZE-247" source="PmK2E9ObwFfIMZQdWyZE-248" edge="1">
          <mxGeometry width="50" height="50" relative="1" as="geometry">
            <mxPoint x="125.16000000000003" y="60" as="sourcePoint" />
            <mxPoint x="108.32952380952389" y="40" as="targetPoint" />
          </mxGeometry>
        </mxCell>
        <mxCell id="PmK2E9ObwFfIMZQdWyZE-271" value="" style="edgeStyle=orthogonalEdgeStyle;rounded=0;orthogonalLoop=1;jettySize=auto;html=1;endArrow=none;endFill=0;" parent="WIyWlLk6GJQsqaUBKTNV-1" source="PmK2E9ObwFfIMZQdWyZE-272" target="PmK2E9ObwFfIMZQdWyZE-307" edge="1">
          <mxGeometry relative="1" as="geometry" />
        </mxCell>
        <mxCell id="PmK2E9ObwFfIMZQdWyZE-272" value="totalCosto = cant_pasajes * v_costo[cod_vuelo - 1]" style="whiteSpace=wrap;html=1;" parent="WIyWlLk6GJQsqaUBKTNV-1" vertex="1">
          <mxGeometry x="928.09" y="3670" width="250" height="30" as="geometry" />
        </mxCell>
        <mxCell id="PmK2E9ObwFfIMZQdWyZE-273" style="edgeStyle=orthogonalEdgeStyle;rounded=0;orthogonalLoop=1;jettySize=auto;html=1;exitX=0.5;exitY=1;exitDx=0;exitDy=0;entryX=0.5;entryY=0;entryDx=0;entryDy=0;endArrow=none;endFill=0;" parent="WIyWlLk6GJQsqaUBKTNV-1" source="PmK2E9ObwFfIMZQdWyZE-240" edge="1">
          <mxGeometry relative="1" as="geometry">
            <mxPoint x="1051.19" y="3670" as="targetPoint" />
          </mxGeometry>
        </mxCell>
        <mxCell id="PmK2E9ObwFfIMZQdWyZE-274" value="&quot;Comision por vendedor: &quot;" style="shape=trapezoid;perimeter=trapezoidPerimeter;whiteSpace=wrap;html=1;fixedSize=1;align=center;verticalAlign=middle;horizontal=1;" parent="WIyWlLk6GJQsqaUBKTNV-1" vertex="1">
          <mxGeometry x="259.89" y="1330" width="187.5" height="50" as="geometry" />
        </mxCell>
        <mxCell id="PmK2E9ObwFfIMZQdWyZE-275" value=" " style="group" parent="WIyWlLk6GJQsqaUBKTNV-1" vertex="1" connectable="0">
          <mxGeometry x="911.9" y="4010" width="260" height="80" as="geometry" />
        </mxCell>
        <mxCell id="PmK2E9ObwFfIMZQdWyZE-276" value="" style="group;shadow=1;" parent="PmK2E9ObwFfIMZQdWyZE-275" vertex="1" connectable="0">
          <mxGeometry width="260" height="80" as="geometry" />
        </mxCell>
        <mxCell id="PmK2E9ObwFfIMZQdWyZE-277" value="" style="shape=hexagon;perimeter=hexagonPerimeter2;whiteSpace=wrap;html=1;fixedSize=1;size=20;" parent="PmK2E9ObwFfIMZQdWyZE-276" vertex="1">
          <mxGeometry width="260" height="80" as="geometry" />
        </mxCell>
        <mxCell id="PmK2E9ObwFfIMZQdWyZE-278" value="" style="endArrow=none;html=1;rounded=0;entryX=1;entryY=0.5;entryDx=0;entryDy=0;" parent="PmK2E9ObwFfIMZQdWyZE-276" target="PmK2E9ObwFfIMZQdWyZE-277" edge="1">
          <mxGeometry width="50" height="50" relative="1" as="geometry">
            <mxPoint y="39.860000000000014" as="sourcePoint" />
            <mxPoint x="173.33333333333331" y="39.860000000000014" as="targetPoint" />
          </mxGeometry>
        </mxCell>
        <mxCell id="PmK2E9ObwFfIMZQdWyZE-279" value="int v[8]" style="text;strokeColor=none;align=center;fillColor=none;html=1;verticalAlign=middle;whiteSpace=wrap;rounded=0;fontSize=12;fontFamily=Helvetica;fontColor=default;" parent="PmK2E9ObwFfIMZQdWyZE-276" vertex="1">
          <mxGeometry x="108.33333333333333" y="40" width="86.66666666666666" height="30" as="geometry" />
        </mxCell>
        <mxCell id="PmK2E9ObwFfIMZQdWyZE-280" value="void mostrarPuntoD" style="text;strokeColor=none;align=center;fillColor=none;html=1;verticalAlign=middle;whiteSpace=wrap;rounded=0;fontSize=12;fontFamily=Helvetica;fontColor=default;" parent="PmK2E9ObwFfIMZQdWyZE-276" vertex="1">
          <mxGeometry x="65" y="10" width="130" height="10" as="geometry" />
        </mxCell>
        <mxCell id="PmK2E9ObwFfIMZQdWyZE-281" value="" style="endArrow=none;html=1;rounded=0;fontFamily=Helvetica;fontSize=12;fontColor=default;exitX=0.375;exitY=1;exitDx=0;exitDy=0;movable=0;resizable=0;rotatable=0;deletable=0;editable=0;locked=1;connectable=0;" parent="PmK2E9ObwFfIMZQdWyZE-275" source="PmK2E9ObwFfIMZQdWyZE-277" edge="1">
          <mxGeometry width="50" height="50" relative="1" as="geometry">
            <mxPoint x="43.33333333333333" y="100" as="sourcePoint" />
            <mxPoint x="97.5" y="40" as="targetPoint" />
          </mxGeometry>
        </mxCell>
        <mxCell id="PmK2E9ObwFfIMZQdWyZE-282" style="edgeStyle=orthogonalEdgeStyle;rounded=0;orthogonalLoop=1;jettySize=auto;html=1;exitX=0.5;exitY=1;exitDx=0;exitDy=0;entryX=0.5;entryY=0;entryDx=0;entryDy=0;endArrow=none;endFill=0;" parent="WIyWlLk6GJQsqaUBKTNV-1" source="PmK2E9ObwFfIMZQdWyZE-283" target="PmK2E9ObwFfIMZQdWyZE-290" edge="1">
          <mxGeometry relative="1" as="geometry" />
        </mxCell>
        <mxCell id="PmK2E9ObwFfIMZQdWyZE-283" value="int i=0;i&amp;lt;8;i++" style="swimlane;horizontal=0;whiteSpace=wrap;html=1;" parent="WIyWlLk6GJQsqaUBKTNV-1" vertex="1">
          <mxGeometry x="775" y="4120" width="533.81" height="220" as="geometry" />
        </mxCell>
        <mxCell id="PmK2E9ObwFfIMZQdWyZE-284" style="edgeStyle=orthogonalEdgeStyle;rounded=0;orthogonalLoop=1;jettySize=auto;html=1;exitX=0.5;exitY=1;exitDx=0;exitDy=0;entryX=0.5;entryY=1;entryDx=0;entryDy=0;endArrow=none;endFill=0;" parent="PmK2E9ObwFfIMZQdWyZE-283" source="PmK2E9ObwFfIMZQdWyZE-285" target="PmK2E9ObwFfIMZQdWyZE-289" edge="1">
          <mxGeometry relative="1" as="geometry" />
        </mxCell>
        <mxCell id="PmK2E9ObwFfIMZQdWyZE-285" value="&amp;nbsp;i+1 +&amp;nbsp; v[i]" style="shape=trapezoid;perimeter=trapezoidPerimeter;whiteSpace=wrap;html=1;fixedSize=1;" parent="PmK2E9ObwFfIMZQdWyZE-283" vertex="1">
          <mxGeometry x="30" y="120" width="222.37" height="60" as="geometry" />
        </mxCell>
        <mxCell id="PmK2E9ObwFfIMZQdWyZE-286" style="edgeStyle=orthogonalEdgeStyle;rounded=0;orthogonalLoop=1;jettySize=auto;html=1;exitX=0;exitY=0.5;exitDx=0;exitDy=0;endArrow=none;endFill=0;" parent="PmK2E9ObwFfIMZQdWyZE-283" source="PmK2E9ObwFfIMZQdWyZE-288" target="PmK2E9ObwFfIMZQdWyZE-285" edge="1">
          <mxGeometry relative="1" as="geometry" />
        </mxCell>
        <mxCell id="PmK2E9ObwFfIMZQdWyZE-287" style="edgeStyle=orthogonalEdgeStyle;rounded=0;orthogonalLoop=1;jettySize=auto;html=1;exitX=1;exitY=0.5;exitDx=0;exitDy=0;endArrow=none;endFill=0;" parent="PmK2E9ObwFfIMZQdWyZE-283" source="PmK2E9ObwFfIMZQdWyZE-288" target="PmK2E9ObwFfIMZQdWyZE-289" edge="1">
          <mxGeometry relative="1" as="geometry" />
        </mxCell>
        <mxCell id="PmK2E9ObwFfIMZQdWyZE-288" value="v[i] != 0" style="rhombus;whiteSpace=wrap;html=1;" parent="PmK2E9ObwFfIMZQdWyZE-283" vertex="1">
          <mxGeometry x="210" y="10" width="80" height="80" as="geometry" />
        </mxCell>
        <mxCell id="PmK2E9ObwFfIMZQdWyZE-289" value="&quot;No registro ventas&quot;" style="shape=trapezoid;perimeter=trapezoidPerimeter;whiteSpace=wrap;html=1;fixedSize=1;" parent="PmK2E9ObwFfIMZQdWyZE-283" vertex="1">
          <mxGeometry x="303.81" y="120" width="190" height="60" as="geometry" />
        </mxCell>
        <mxCell id="PmK2E9ObwFfIMZQdWyZE-290" value="F" style="ellipse;whiteSpace=wrap;html=1;" parent="WIyWlLk6GJQsqaUBKTNV-1" vertex="1">
          <mxGeometry x="1011.9" y="4360" width="60" height="60" as="geometry" />
        </mxCell>
        <mxCell id="PmK2E9ObwFfIMZQdWyZE-291" style="edgeStyle=orthogonalEdgeStyle;rounded=0;orthogonalLoop=1;jettySize=auto;html=1;exitX=0.5;exitY=1;exitDx=0;exitDy=0;entryX=0.5;entryY=0;entryDx=0;entryDy=0;endArrow=none;endFill=0;" parent="WIyWlLk6GJQsqaUBKTNV-1" source="PmK2E9ObwFfIMZQdWyZE-277" target="PmK2E9ObwFfIMZQdWyZE-283" edge="1">
          <mxGeometry relative="1" as="geometry" />
        </mxCell>
        <mxCell id="PmK2E9ObwFfIMZQdWyZE-292" value="" style="group" parent="WIyWlLk6GJQsqaUBKTNV-1" vertex="1" connectable="0">
          <mxGeometry x="231.13" y="1590" width="260" height="80" as="geometry" />
        </mxCell>
        <mxCell id="PmK2E9ObwFfIMZQdWyZE-293" value="" style="group;shadow=1;" parent="PmK2E9ObwFfIMZQdWyZE-292" vertex="1" connectable="0">
          <mxGeometry width="260" height="80" as="geometry" />
        </mxCell>
        <mxCell id="PmK2E9ObwFfIMZQdWyZE-294" value="" style="shape=hexagon;perimeter=hexagonPerimeter2;whiteSpace=wrap;html=1;fixedSize=1;size=20;" parent="PmK2E9ObwFfIMZQdWyZE-293" vertex="1">
          <mxGeometry width="260" height="80" as="geometry" />
        </mxCell>
        <mxCell id="PmK2E9ObwFfIMZQdWyZE-295" value="" style="endArrow=none;html=1;rounded=0;entryX=1;entryY=0.5;entryDx=0;entryDy=0;" parent="PmK2E9ObwFfIMZQdWyZE-293" target="PmK2E9ObwFfIMZQdWyZE-294" edge="1">
          <mxGeometry width="50" height="50" relative="1" as="geometry">
            <mxPoint y="39.860000000000014" as="sourcePoint" />
            <mxPoint x="173.33333333333331" y="39.860000000000014" as="targetPoint" />
          </mxGeometry>
        </mxCell>
        <mxCell id="PmK2E9ObwFfIMZQdWyZE-296" value="vendedorPuntoD" style="text;strokeColor=none;align=center;fillColor=none;html=1;verticalAlign=middle;whiteSpace=wrap;rounded=0;fontSize=12;fontFamily=Helvetica;fontColor=default;" parent="PmK2E9ObwFfIMZQdWyZE-293" vertex="1">
          <mxGeometry x="120.00333333333333" y="40" width="86.66666666666666" height="30" as="geometry" />
        </mxCell>
        <mxCell id="PmK2E9ObwFfIMZQdWyZE-297" value="mostrarPuntoD" style="text;strokeColor=none;align=center;fillColor=none;html=1;verticalAlign=middle;whiteSpace=wrap;rounded=0;fontSize=12;fontFamily=Helvetica;fontColor=default;" parent="PmK2E9ObwFfIMZQdWyZE-293" vertex="1">
          <mxGeometry x="65" y="10" width="130" height="10" as="geometry" />
        </mxCell>
        <mxCell id="PmK2E9ObwFfIMZQdWyZE-298" value="" style="endArrow=none;html=1;rounded=0;fontFamily=Helvetica;fontSize=12;fontColor=default;exitX=0.375;exitY=1;exitDx=0;exitDy=0;movable=0;resizable=0;rotatable=0;deletable=0;editable=0;locked=1;connectable=0;" parent="PmK2E9ObwFfIMZQdWyZE-292" source="PmK2E9ObwFfIMZQdWyZE-294" edge="1">
          <mxGeometry width="50" height="50" relative="1" as="geometry">
            <mxPoint x="43.33333333333333" y="100" as="sourcePoint" />
            <mxPoint x="97.5" y="40" as="targetPoint" />
          </mxGeometry>
        </mxCell>
        <mxCell id="PmK2E9ObwFfIMZQdWyZE-299" value="&quot;Vendedor con mayor venta segun cliente: &quot;" style="shape=trapezoid;perimeter=trapezoidPerimeter;whiteSpace=wrap;html=1;fixedSize=1;align=center;verticalAlign=middle;horizontal=1;" parent="WIyWlLk6GJQsqaUBKTNV-1" vertex="1">
          <mxGeometry x="230.01" y="1510" width="254.87" height="50" as="geometry" />
        </mxCell>
        <mxCell id="PmK2E9ObwFfIMZQdWyZE-300" style="edgeStyle=orthogonalEdgeStyle;rounded=0;orthogonalLoop=1;jettySize=auto;html=1;exitX=0.5;exitY=1;exitDx=0;exitDy=0;entryX=0.5;entryY=0;entryDx=0;entryDy=0;endArrow=none;endFill=0;" parent="WIyWlLk6GJQsqaUBKTNV-1" target="PmK2E9ObwFfIMZQdWyZE-274" edge="1">
          <mxGeometry relative="1" as="geometry">
            <mxPoint x="353.63" y="1300" as="sourcePoint" />
          </mxGeometry>
        </mxCell>
        <mxCell id="PmK2E9ObwFfIMZQdWyZE-301" style="edgeStyle=orthogonalEdgeStyle;rounded=0;orthogonalLoop=1;jettySize=auto;html=1;exitX=0.5;exitY=1;exitDx=0;exitDy=0;entryX=0.481;entryY=-0.018;entryDx=0;entryDy=0;entryPerimeter=0;endArrow=none;endFill=0;" parent="WIyWlLk6GJQsqaUBKTNV-1" source="PmK2E9ObwFfIMZQdWyZE-274" target="PmK2E9ObwFfIMZQdWyZE-233" edge="1">
          <mxGeometry relative="1" as="geometry" />
        </mxCell>
        <mxCell id="PmK2E9ObwFfIMZQdWyZE-302" style="edgeStyle=orthogonalEdgeStyle;rounded=0;orthogonalLoop=1;jettySize=auto;html=1;exitX=0.5;exitY=1;exitDx=0;exitDy=0;entryX=0.512;entryY=-0.02;entryDx=0;entryDy=0;entryPerimeter=0;endArrow=none;endFill=0;" parent="WIyWlLk6GJQsqaUBKTNV-1" source="PmK2E9ObwFfIMZQdWyZE-233" target="PmK2E9ObwFfIMZQdWyZE-299" edge="1">
          <mxGeometry relative="1" as="geometry" />
        </mxCell>
        <mxCell id="PmK2E9ObwFfIMZQdWyZE-303" style="edgeStyle=orthogonalEdgeStyle;rounded=0;orthogonalLoop=1;jettySize=auto;html=1;exitX=0.5;exitY=1;exitDx=0;exitDy=0;entryX=0.485;entryY=-0.001;entryDx=0;entryDy=0;entryPerimeter=0;endArrow=none;endFill=0;" parent="WIyWlLk6GJQsqaUBKTNV-1" source="PmK2E9ObwFfIMZQdWyZE-299" target="PmK2E9ObwFfIMZQdWyZE-294" edge="1">
          <mxGeometry relative="1" as="geometry" />
        </mxCell>
        <mxCell id="PmK2E9ObwFfIMZQdWyZE-304" style="edgeStyle=orthogonalEdgeStyle;rounded=0;orthogonalLoop=1;jettySize=auto;html=1;exitX=0.5;exitY=1;exitDx=0;exitDy=0;entryX=0.514;entryY=-0.002;entryDx=0;entryDy=0;entryPerimeter=0;endArrow=none;endFill=0;" parent="WIyWlLk6GJQsqaUBKTNV-1" source="PmK2E9ObwFfIMZQdWyZE-14" target="PmK2E9ObwFfIMZQdWyZE-210" edge="1">
          <mxGeometry relative="1" as="geometry" />
        </mxCell>
        <mxCell id="PmK2E9ObwFfIMZQdWyZE-305" style="edgeStyle=orthogonalEdgeStyle;rounded=0;orthogonalLoop=1;jettySize=auto;html=1;exitX=0.5;exitY=1;exitDx=0;exitDy=0;entryX=0.5;entryY=0;entryDx=0;entryDy=0;endArrow=none;endFill=0;" parent="WIyWlLk6GJQsqaUBKTNV-1" source="PmK2E9ObwFfIMZQdWyZE-210" target="PmK2E9ObwFfIMZQdWyZE-256" edge="1">
          <mxGeometry relative="1" as="geometry" />
        </mxCell>
        <mxCell id="PmK2E9ObwFfIMZQdWyZE-306" style="edgeStyle=orthogonalEdgeStyle;rounded=0;orthogonalLoop=1;jettySize=auto;html=1;exitX=1;exitY=0.5;exitDx=0;exitDy=0;entryX=0.5;entryY=1;entryDx=0;entryDy=0;endArrow=none;endFill=0;" parent="WIyWlLk6GJQsqaUBKTNV-1" source="PmK2E9ObwFfIMZQdWyZE-307" target="PmK2E9ObwFfIMZQdWyZE-311" edge="1">
          <mxGeometry relative="1" as="geometry">
            <Array as="points">
              <mxPoint x="1203.09" y="3785" />
              <mxPoint x="1203.09" y="3930" />
              <mxPoint x="873.0900000000001" y="3930" />
            </Array>
          </mxGeometry>
        </mxCell>
        <mxCell id="PmK2E9ObwFfIMZQdWyZE-307" value="totalCosto &amp;gt; v_ventaMax[nro_vendedor - 1]" style="rhombus;whiteSpace=wrap;html=1;" parent="WIyWlLk6GJQsqaUBKTNV-1" vertex="1">
          <mxGeometry x="923.0900000000001" y="3730" width="260" height="110" as="geometry" />
        </mxCell>
        <mxCell id="PmK2E9ObwFfIMZQdWyZE-308" value="" style="edgeStyle=orthogonalEdgeStyle;rounded=0;orthogonalLoop=1;jettySize=auto;html=1;endArrow=none;endFill=0;" parent="WIyWlLk6GJQsqaUBKTNV-1" source="PmK2E9ObwFfIMZQdWyZE-310" target="PmK2E9ObwFfIMZQdWyZE-311" edge="1">
          <mxGeometry relative="1" as="geometry" />
        </mxCell>
        <mxCell id="PmK2E9ObwFfIMZQdWyZE-309" style="edgeStyle=orthogonalEdgeStyle;rounded=0;orthogonalLoop=1;jettySize=auto;html=1;exitX=0;exitY=0.5;exitDx=0;exitDy=0;entryX=0.455;entryY=-0.008;entryDx=0;entryDy=0;entryPerimeter=0;endArrow=none;endFill=0;" parent="WIyWlLk6GJQsqaUBKTNV-1" source="PmK2E9ObwFfIMZQdWyZE-307" target="PmK2E9ObwFfIMZQdWyZE-310" edge="1">
          <mxGeometry relative="1" as="geometry" />
        </mxCell>
        <mxCell id="PmK2E9ObwFfIMZQdWyZE-310" value="v_ventaMax[nro_vendedor - 1]= totalCosto" style="whiteSpace=wrap;html=1;" parent="WIyWlLk6GJQsqaUBKTNV-1" vertex="1">
          <mxGeometry x="755" y="3810" width="178.09" height="40" as="geometry" />
        </mxCell>
        <mxCell id="PmK2E9ObwFfIMZQdWyZE-311" value="v[nro_vendedor - 1] = nro_cliente" style="whiteSpace=wrap;html=1;" parent="WIyWlLk6GJQsqaUBKTNV-1" vertex="1">
          <mxGeometry x="755" y="3870" width="178.09" height="40" as="geometry" />
        </mxCell>
        <mxCell id="PmK2E9ObwFfIMZQdWyZE-313" value="float v_bimestre[6]" style="whiteSpace=wrap;html=1;" parent="WIyWlLk6GJQsqaUBKTNV-1" vertex="1">
          <mxGeometry x="306.32" y="720" width="120" height="30" as="geometry" />
        </mxCell>
        <mxCell id="PmK2E9ObwFfIMZQdWyZE-314" value="" style="group;shadow=1;align=center;verticalAlign=middle;horizontal=1;" parent="WIyWlLk6GJQsqaUBKTNV-1" vertex="1" connectable="0">
          <mxGeometry x="233.75" y="765" width="260" height="80" as="geometry" />
        </mxCell>
        <mxCell id="PmK2E9ObwFfIMZQdWyZE-315" value="" style="shape=hexagon;perimeter=hexagonPerimeter2;whiteSpace=wrap;html=1;fixedSize=1;size=20;align=center;verticalAlign=middle;horizontal=1;" parent="PmK2E9ObwFfIMZQdWyZE-314" vertex="1">
          <mxGeometry width="260" height="80" as="geometry" />
        </mxCell>
        <mxCell id="PmK2E9ObwFfIMZQdWyZE-316" value="" style="endArrow=none;html=1;rounded=0;entryX=1;entryY=0.5;entryDx=0;entryDy=0;align=center;verticalAlign=middle;horizontal=1;" parent="PmK2E9ObwFfIMZQdWyZE-314" target="PmK2E9ObwFfIMZQdWyZE-315" edge="1">
          <mxGeometry width="50" height="50" relative="1" as="geometry">
            <mxPoint y="39.860000000000014" as="sourcePoint" />
            <mxPoint x="173.33333333333331" y="39.860000000000014" as="targetPoint" />
          </mxGeometry>
        </mxCell>
        <mxCell id="PmK2E9ObwFfIMZQdWyZE-317" value="6" style="text;strokeColor=none;align=center;fillColor=none;html=1;verticalAlign=middle;whiteSpace=wrap;rounded=0;fontSize=12;fontFamily=Helvetica;fontColor=default;horizontal=1;" parent="PmK2E9ObwFfIMZQdWyZE-314" vertex="1">
          <mxGeometry x="21.666666666666664" y="40" width="86.66666666666666" height="30" as="geometry" />
        </mxCell>
        <mxCell id="PmK2E9ObwFfIMZQdWyZE-318" value="&amp;nbsp;v_bimestre" style="text;strokeColor=none;align=center;fillColor=none;html=1;verticalAlign=middle;whiteSpace=wrap;rounded=0;fontSize=12;fontFamily=Helvetica;fontColor=default;horizontal=1;" parent="PmK2E9ObwFfIMZQdWyZE-314" vertex="1">
          <mxGeometry x="127.50333333333333" y="40" width="86.66666666666666" height="30" as="geometry" />
        </mxCell>
        <mxCell id="PmK2E9ObwFfIMZQdWyZE-319" value="inicializarCero" style="text;strokeColor=none;align=center;fillColor=none;html=1;verticalAlign=middle;whiteSpace=wrap;rounded=0;fontSize=12;fontFamily=Helvetica;fontColor=default;horizontal=1;" parent="PmK2E9ObwFfIMZQdWyZE-314" vertex="1">
          <mxGeometry x="65" y="10" width="130" height="10" as="geometry" />
        </mxCell>
        <mxCell id="PmK2E9ObwFfIMZQdWyZE-320" value="" style="endArrow=none;html=1;rounded=0;exitX=0.415;exitY=0.995;exitDx=0;exitDy=0;exitPerimeter=0;align=center;verticalAlign=middle;horizontal=1;" parent="PmK2E9ObwFfIMZQdWyZE-314" source="PmK2E9ObwFfIMZQdWyZE-315" edge="1">
          <mxGeometry width="50" height="50" relative="1" as="geometry">
            <mxPoint x="125.16000000000003" y="60" as="sourcePoint" />
            <mxPoint x="108.32952380952389" y="40" as="targetPoint" />
          </mxGeometry>
        </mxCell>
        <mxCell id="PmK2E9ObwFfIMZQdWyZE-372" value="" style="group" parent="WIyWlLk6GJQsqaUBKTNV-1" vertex="1" connectable="0">
          <mxGeometry x="908.9" y="5080.5" width="260" height="80" as="geometry" />
        </mxCell>
        <mxCell id="PmK2E9ObwFfIMZQdWyZE-373" value="" style="group;shadow=1;" parent="PmK2E9ObwFfIMZQdWyZE-372" vertex="1" connectable="0">
          <mxGeometry width="260" height="80" as="geometry" />
        </mxCell>
        <mxCell id="PmK2E9ObwFfIMZQdWyZE-374" value="" style="shape=hexagon;perimeter=hexagonPerimeter2;whiteSpace=wrap;html=1;fixedSize=1;size=20;" parent="PmK2E9ObwFfIMZQdWyZE-373" vertex="1">
          <mxGeometry width="260" height="80" as="geometry" />
        </mxCell>
        <mxCell id="PmK2E9ObwFfIMZQdWyZE-375" value="" style="endArrow=none;html=1;rounded=0;entryX=1;entryY=0.5;entryDx=0;entryDy=0;" parent="PmK2E9ObwFfIMZQdWyZE-373" target="PmK2E9ObwFfIMZQdWyZE-374" edge="1">
          <mxGeometry width="50" height="50" relative="1" as="geometry">
            <mxPoint y="39.860000000000014" as="sourcePoint" />
            <mxPoint x="173.33333333333331" y="39.860000000000014" as="targetPoint" />
          </mxGeometry>
        </mxCell>
        <mxCell id="PmK2E9ObwFfIMZQdWyZE-376" value="float v[6]" style="text;strokeColor=none;align=center;fillColor=none;html=1;verticalAlign=middle;whiteSpace=wrap;rounded=0;fontSize=12;fontFamily=Helvetica;fontColor=default;" parent="PmK2E9ObwFfIMZQdWyZE-373" vertex="1">
          <mxGeometry x="108.33333333333333" y="40" width="86.66666666666666" height="30" as="geometry" />
        </mxCell>
        <mxCell id="PmK2E9ObwFfIMZQdWyZE-377" value="void mostrarPuntoE" style="text;strokeColor=none;align=center;fillColor=none;html=1;verticalAlign=middle;whiteSpace=wrap;rounded=0;fontSize=12;fontFamily=Helvetica;fontColor=default;" parent="PmK2E9ObwFfIMZQdWyZE-373" vertex="1">
          <mxGeometry x="65" y="10" width="130" height="10" as="geometry" />
        </mxCell>
        <mxCell id="PmK2E9ObwFfIMZQdWyZE-378" value="" style="endArrow=none;html=1;rounded=0;fontFamily=Helvetica;fontSize=12;fontColor=default;exitX=0.375;exitY=1;exitDx=0;exitDy=0;movable=0;resizable=0;rotatable=0;deletable=0;editable=0;locked=1;connectable=0;" parent="PmK2E9ObwFfIMZQdWyZE-372" source="PmK2E9ObwFfIMZQdWyZE-374" edge="1">
          <mxGeometry width="50" height="50" relative="1" as="geometry">
            <mxPoint x="43.33333333333333" y="100" as="sourcePoint" />
            <mxPoint x="97.5" y="40" as="targetPoint" />
          </mxGeometry>
        </mxCell>
        <mxCell id="PmK2E9ObwFfIMZQdWyZE-379" style="edgeStyle=orthogonalEdgeStyle;rounded=0;orthogonalLoop=1;jettySize=auto;html=1;exitX=0.5;exitY=1;exitDx=0;exitDy=0;entryX=0.5;entryY=0;entryDx=0;entryDy=0;" parent="WIyWlLk6GJQsqaUBKTNV-1" source="PmK2E9ObwFfIMZQdWyZE-380" target="PmK2E9ObwFfIMZQdWyZE-382" edge="1">
          <mxGeometry relative="1" as="geometry" />
        </mxCell>
        <mxCell id="PmK2E9ObwFfIMZQdWyZE-380" value="int i=0;i&amp;lt;6;i++" style="swimlane;horizontal=0;whiteSpace=wrap;html=1;" parent="WIyWlLk6GJQsqaUBKTNV-1" vertex="1">
          <mxGeometry x="828.9" y="5210.5" width="420" height="110" as="geometry" />
        </mxCell>
        <mxCell id="PmK2E9ObwFfIMZQdWyZE-381" value="&quot;Bimestre: &quot; + i+1 + &quot;Recaudacion: &quot; + v[i]" style="shape=trapezoid;perimeter=trapezoidPerimeter;whiteSpace=wrap;html=1;fixedSize=1;" parent="PmK2E9ObwFfIMZQdWyZE-380" vertex="1">
          <mxGeometry x="90" y="20" width="250" height="60" as="geometry" />
        </mxCell>
        <mxCell id="PmK2E9ObwFfIMZQdWyZE-382" value="F" style="ellipse;whiteSpace=wrap;html=1;" parent="WIyWlLk6GJQsqaUBKTNV-1" vertex="1">
          <mxGeometry x="1008.9" y="5350.5" width="60" height="60" as="geometry" />
        </mxCell>
        <mxCell id="PmK2E9ObwFfIMZQdWyZE-383" style="edgeStyle=orthogonalEdgeStyle;rounded=0;orthogonalLoop=1;jettySize=auto;html=1;exitX=0.5;exitY=1;exitDx=0;exitDy=0;entryX=0.5;entryY=0;entryDx=0;entryDy=0;" parent="WIyWlLk6GJQsqaUBKTNV-1" source="PmK2E9ObwFfIMZQdWyZE-374" target="PmK2E9ObwFfIMZQdWyZE-380" edge="1">
          <mxGeometry relative="1" as="geometry" />
        </mxCell>
        <mxCell id="PmK2E9ObwFfIMZQdWyZE-391" value="&quot;Recaudacion por bimestre: &quot;" style="shape=trapezoid;perimeter=trapezoidPerimeter;whiteSpace=wrap;html=1;fixedSize=1;" parent="WIyWlLk6GJQsqaUBKTNV-1" vertex="1">
          <mxGeometry x="252.45" y="1690" width="210" height="40" as="geometry" />
        </mxCell>
        <mxCell id="PmK2E9ObwFfIMZQdWyZE-392" style="edgeStyle=orthogonalEdgeStyle;rounded=0;orthogonalLoop=1;jettySize=auto;html=1;exitX=0.5;exitY=1;exitDx=0;exitDy=0;entryX=0.52;entryY=-0.002;entryDx=0;entryDy=0;entryPerimeter=0;endArrow=none;endFill=0;" parent="WIyWlLk6GJQsqaUBKTNV-1" source="PmK2E9ObwFfIMZQdWyZE-391" edge="1">
          <mxGeometry relative="1" as="geometry">
            <mxPoint x="358.8299999999999" y="1759.8399999999997" as="targetPoint" />
          </mxGeometry>
        </mxCell>
        <mxCell id="PmK2E9ObwFfIMZQdWyZE-393" style="edgeStyle=orthogonalEdgeStyle;rounded=0;orthogonalLoop=1;jettySize=auto;html=1;exitX=0.5;exitY=1;exitDx=0;exitDy=0;entryX=0.509;entryY=-0.062;entryDx=0;entryDy=0;entryPerimeter=0;endArrow=none;endFill=0;" parent="WIyWlLk6GJQsqaUBKTNV-1" source="PmK2E9ObwFfIMZQdWyZE-294" target="PmK2E9ObwFfIMZQdWyZE-391" edge="1">
          <mxGeometry relative="1" as="geometry" />
        </mxCell>
        <mxCell id="PmK2E9ObwFfIMZQdWyZE-405" style="edgeStyle=orthogonalEdgeStyle;rounded=0;orthogonalLoop=1;jettySize=auto;html=1;exitX=0.5;exitY=1;exitDx=0;exitDy=0;entryX=0.5;entryY=0;entryDx=0;entryDy=0;" parent="WIyWlLk6GJQsqaUBKTNV-1" source="PmK2E9ObwFfIMZQdWyZE-20" target="PmK2E9ObwFfIMZQdWyZE-404" edge="1">
          <mxGeometry relative="1" as="geometry" />
        </mxCell>
        <mxCell id="PmK2E9ObwFfIMZQdWyZE-20" value="importe = v_costo[cod_vuelo - 1] * cant_pasajes" style="whiteSpace=wrap;html=1;" parent="WIyWlLk6GJQsqaUBKTNV-1" vertex="1">
          <mxGeometry x="899.87" y="4584" width="280" height="30" as="geometry" />
        </mxCell>
        <mxCell id="PmK2E9ObwFfIMZQdWyZE-395" value="" style="group" parent="WIyWlLk6GJQsqaUBKTNV-1" vertex="1" connectable="0">
          <mxGeometry x="831.9" y="4460" width="405" height="80" as="geometry" />
        </mxCell>
        <mxCell id="PmK2E9ObwFfIMZQdWyZE-396" value="" style="group;shadow=1;" parent="PmK2E9ObwFfIMZQdWyZE-395" vertex="1" connectable="0">
          <mxGeometry x="6" width="405.00000000000006" height="80" as="geometry" />
        </mxCell>
        <mxCell id="PmK2E9ObwFfIMZQdWyZE-397" value="" style="shape=hexagon;perimeter=hexagonPerimeter2;whiteSpace=wrap;html=1;fixedSize=1;size=20;" parent="PmK2E9ObwFfIMZQdWyZE-396" vertex="1">
          <mxGeometry width="405.00000000000006" height="80" as="geometry" />
        </mxCell>
        <mxCell id="PmK2E9ObwFfIMZQdWyZE-398" value="" style="endArrow=none;html=1;rounded=0;entryX=1;entryY=0.5;entryDx=0;entryDy=0;" parent="PmK2E9ObwFfIMZQdWyZE-396" target="PmK2E9ObwFfIMZQdWyZE-397" edge="1">
          <mxGeometry width="50" height="50" relative="1" as="geometry">
            <mxPoint y="39.860000000000014" as="sourcePoint" />
            <mxPoint x="270" y="39.860000000000014" as="targetPoint" />
          </mxGeometry>
        </mxCell>
        <mxCell id="PmK2E9ObwFfIMZQdWyZE-399" value="int cant_pasajes, int cod_vuelo" style="text;strokeColor=none;align=center;fillColor=none;html=1;verticalAlign=middle;whiteSpace=wrap;rounded=0;fontSize=12;fontFamily=Helvetica;fontColor=default;" parent="PmK2E9ObwFfIMZQdWyZE-396" vertex="1">
          <mxGeometry y="40" width="150.55875000000003" height="30" as="geometry" />
        </mxCell>
        <mxCell id="PmK2E9ObwFfIMZQdWyZE-400" value="float v_costo[50]" style="text;strokeColor=none;align=center;fillColor=none;html=1;verticalAlign=middle;whiteSpace=wrap;rounded=0;fontSize=12;fontFamily=Helvetica;fontColor=default;" parent="PmK2E9ObwFfIMZQdWyZE-396" vertex="1">
          <mxGeometry x="168.75" y="40" width="135" height="30" as="geometry" />
        </mxCell>
        <mxCell id="PmK2E9ObwFfIMZQdWyZE-401" value="float calcularImporteVenta" style="text;strokeColor=none;align=center;fillColor=none;html=1;verticalAlign=middle;whiteSpace=wrap;rounded=0;fontSize=12;fontFamily=Helvetica;fontColor=default;" parent="PmK2E9ObwFfIMZQdWyZE-396" vertex="1">
          <mxGeometry x="89.56730769230771" y="10" width="225.86538461538464" height="10" as="geometry" />
        </mxCell>
        <mxCell id="PmK2E9ObwFfIMZQdWyZE-402" value="" style="endArrow=none;html=1;rounded=0;fontFamily=Helvetica;fontSize=12;fontColor=default;exitX=0.363;exitY=1.001;exitDx=0;exitDy=0;movable=1;resizable=1;rotatable=1;deletable=1;editable=1;locked=0;connectable=1;exitPerimeter=0;" parent="PmK2E9ObwFfIMZQdWyZE-395" source="PmK2E9ObwFfIMZQdWyZE-397" edge="1">
          <mxGeometry width="50" height="50" relative="1" as="geometry">
            <mxPoint x="67.5" y="100" as="sourcePoint" />
            <mxPoint x="151.875" y="40" as="targetPoint" />
          </mxGeometry>
        </mxCell>
        <mxCell id="PmK2E9ObwFfIMZQdWyZE-403" style="edgeStyle=orthogonalEdgeStyle;rounded=0;orthogonalLoop=1;jettySize=auto;html=1;exitX=0.5;exitY=1;exitDx=0;exitDy=0;entryX=0.5;entryY=0;entryDx=0;entryDy=0;" parent="WIyWlLk6GJQsqaUBKTNV-1" source="PmK2E9ObwFfIMZQdWyZE-397" target="PmK2E9ObwFfIMZQdWyZE-20" edge="1">
          <mxGeometry relative="1" as="geometry" />
        </mxCell>
        <mxCell id="PmK2E9ObwFfIMZQdWyZE-404" value="rtn importe" style="shape=trapezoid;perimeter=trapezoidPerimeter;whiteSpace=wrap;html=1;fixedSize=1;" parent="WIyWlLk6GJQsqaUBKTNV-1" vertex="1">
          <mxGeometry x="981.0600000000001" y="4634" width="120" height="30" as="geometry" />
        </mxCell>
        <mxCell id="PmK2E9ObwFfIMZQdWyZE-409" style="edgeStyle=orthogonalEdgeStyle;rounded=0;orthogonalLoop=1;jettySize=auto;html=1;exitX=0;exitY=0.5;exitDx=0;exitDy=0;entryX=0.5;entryY=0;entryDx=0;entryDy=0;endArrow=none;endFill=0;" parent="WIyWlLk6GJQsqaUBKTNV-1" source="PmK2E9ObwFfIMZQdWyZE-407" target="PmK2E9ObwFfIMZQdWyZE-408" edge="1">
          <mxGeometry relative="1" as="geometry" />
        </mxCell>
        <mxCell id="PmK2E9ObwFfIMZQdWyZE-411" style="edgeStyle=orthogonalEdgeStyle;rounded=0;orthogonalLoop=1;jettySize=auto;html=1;exitX=1;exitY=0.5;exitDx=0;exitDy=0;entryX=0.5;entryY=0;entryDx=0;entryDy=0;endArrow=none;endFill=0;" parent="WIyWlLk6GJQsqaUBKTNV-1" source="PmK2E9ObwFfIMZQdWyZE-407" target="PmK2E9ObwFfIMZQdWyZE-410" edge="1">
          <mxGeometry relative="1" as="geometry" />
        </mxCell>
        <mxCell id="PmK2E9ObwFfIMZQdWyZE-407" value="mes % 2 !=0" style="rhombus;whiteSpace=wrap;html=1;" parent="WIyWlLk6GJQsqaUBKTNV-1" vertex="1">
          <mxGeometry x="1000.77" y="4810" width="80" height="80" as="geometry" />
        </mxCell>
        <mxCell id="PmK2E9ObwFfIMZQdWyZE-413" style="edgeStyle=orthogonalEdgeStyle;rounded=0;orthogonalLoop=1;jettySize=auto;html=1;exitX=0.5;exitY=1;exitDx=0;exitDy=0;entryX=0.5;entryY=1;entryDx=0;entryDy=0;endArrow=none;endFill=0;" parent="WIyWlLk6GJQsqaUBKTNV-1" source="PmK2E9ObwFfIMZQdWyZE-408" target="PmK2E9ObwFfIMZQdWyZE-410" edge="1">
          <mxGeometry relative="1" as="geometry" />
        </mxCell>
        <mxCell id="PmK2E9ObwFfIMZQdWyZE-408" value="mes = mes / 2" style="whiteSpace=wrap;html=1;" parent="WIyWlLk6GJQsqaUBKTNV-1" vertex="1">
          <mxGeometry x="839.27" y="4880" width="120" height="30" as="geometry" />
        </mxCell>
        <mxCell id="PmK2E9ObwFfIMZQdWyZE-410" value="mes = (mes / 2) - 1" style="whiteSpace=wrap;html=1;" parent="WIyWlLk6GJQsqaUBKTNV-1" vertex="1">
          <mxGeometry x="1101.8999999999999" y="4880" width="120" height="30" as="geometry" />
        </mxCell>
        <mxCell id="PmK2E9ObwFfIMZQdWyZE-418" style="edgeStyle=orthogonalEdgeStyle;rounded=0;orthogonalLoop=1;jettySize=auto;html=1;exitX=0.5;exitY=0;exitDx=0;exitDy=0;endArrow=none;endFill=0;" parent="WIyWlLk6GJQsqaUBKTNV-1" source="PmK2E9ObwFfIMZQdWyZE-415" edge="1">
          <mxGeometry relative="1" as="geometry">
            <mxPoint x="1041.2599999999998" y="4930" as="targetPoint" />
          </mxGeometry>
        </mxCell>
        <mxCell id="PmK2E9ObwFfIMZQdWyZE-419" style="edgeStyle=orthogonalEdgeStyle;rounded=0;orthogonalLoop=1;jettySize=auto;html=1;exitX=0.5;exitY=1;exitDx=0;exitDy=0;entryX=0.5;entryY=0;entryDx=0;entryDy=0;endArrow=none;endFill=0;" parent="WIyWlLk6GJQsqaUBKTNV-1" source="PmK2E9ObwFfIMZQdWyZE-415" target="PmK2E9ObwFfIMZQdWyZE-416" edge="1">
          <mxGeometry relative="1" as="geometry" />
        </mxCell>
        <mxCell id="PmK2E9ObwFfIMZQdWyZE-415" value="v_bimestre[mes] += importe" style="whiteSpace=wrap;html=1;" parent="WIyWlLk6GJQsqaUBKTNV-1" vertex="1">
          <mxGeometry x="951.0600000000001" y="4960" width="180" height="30" as="geometry" />
        </mxCell>
        <mxCell id="PmK2E9ObwFfIMZQdWyZE-416" value="F" style="ellipse;whiteSpace=wrap;html=1;" parent="WIyWlLk6GJQsqaUBKTNV-1" vertex="1">
          <mxGeometry x="1016.06" y="5010" width="50" height="50" as="geometry" />
        </mxCell>
        <mxCell id="PmK2E9ObwFfIMZQdWyZE-420" value="" style="edgeStyle=orthogonalEdgeStyle;rounded=0;orthogonalLoop=1;jettySize=auto;html=1;endArrow=none;endFill=0;" parent="WIyWlLk6GJQsqaUBKTNV-1" source="PmK2E9ObwFfIMZQdWyZE-323" edge="1">
          <mxGeometry relative="1" as="geometry">
            <mxPoint x="1041.0999999999997" y="4810.021978021978" as="targetPoint" />
          </mxGeometry>
        </mxCell>
        <mxCell id="PmK2E9ObwFfIMZQdWyZE-444" value="" style="group" parent="WIyWlLk6GJQsqaUBKTNV-1" vertex="1" connectable="0">
          <mxGeometry x="841.06" y="4700" width="399.9999999999999" height="80" as="geometry" />
        </mxCell>
        <mxCell id="PmK2E9ObwFfIMZQdWyZE-323" value="" style="shape=hexagon;perimeter=hexagonPerimeter2;whiteSpace=wrap;html=1;fixedSize=1;size=20;movable=1;resizable=1;rotatable=1;deletable=1;editable=1;locked=0;connectable=1;container=0;" parent="PmK2E9ObwFfIMZQdWyZE-444" vertex="1">
          <mxGeometry width="400" height="80" as="geometry" />
        </mxCell>
        <mxCell id="PmK2E9ObwFfIMZQdWyZE-324" value="" style="endArrow=none;html=1;rounded=0;entryX=1;entryY=0.5;entryDx=0;entryDy=0;movable=1;resizable=1;rotatable=1;deletable=1;editable=1;locked=0;connectable=1;" parent="PmK2E9ObwFfIMZQdWyZE-444" target="PmK2E9ObwFfIMZQdWyZE-323" edge="1">
          <mxGeometry width="50" height="50" relative="1" as="geometry">
            <mxPoint y="39.85999999999967" as="sourcePoint" />
            <mxPoint x="266.66666666666663" y="39.85999999999967" as="targetPoint" />
          </mxGeometry>
        </mxCell>
        <mxCell id="PmK2E9ObwFfIMZQdWyZE-325" value="&amp;nbsp;float importe, int mes" style="text;strokeColor=none;align=center;fillColor=none;html=1;verticalAlign=middle;whiteSpace=wrap;rounded=0;fontSize=12;fontFamily=Helvetica;fontColor=default;movable=1;resizable=1;rotatable=1;deletable=1;editable=1;locked=0;connectable=1;container=0;" parent="PmK2E9ObwFfIMZQdWyZE-444" vertex="1">
          <mxGeometry x="7.687179487179492" y="40" width="133.33333333333331" height="30" as="geometry" />
        </mxCell>
        <mxCell id="PmK2E9ObwFfIMZQdWyZE-326" value="&amp;nbsp;float v_bimestre[6]" style="text;strokeColor=none;align=center;fillColor=none;html=1;verticalAlign=middle;whiteSpace=wrap;rounded=0;fontSize=12;fontFamily=Helvetica;fontColor=default;movable=1;resizable=1;rotatable=1;deletable=1;editable=1;locked=0;connectable=1;container=0;" parent="PmK2E9ObwFfIMZQdWyZE-444" vertex="1">
          <mxGeometry x="166.6615384615385" y="50" width="187.18461538461537" height="30" as="geometry" />
        </mxCell>
        <mxCell id="PmK2E9ObwFfIMZQdWyZE-327" value="void calcularRecaBimestral" style="text;strokeColor=none;align=center;fillColor=none;html=1;verticalAlign=middle;whiteSpace=wrap;rounded=0;fontSize=12;fontFamily=Helvetica;fontColor=default;movable=1;resizable=1;rotatable=1;deletable=1;editable=1;locked=0;connectable=1;container=0;" parent="PmK2E9ObwFfIMZQdWyZE-444" vertex="1">
          <mxGeometry x="100" y="10" width="200" height="10" as="geometry" />
        </mxCell>
        <mxCell id="PmK2E9ObwFfIMZQdWyZE-328" value="" style="endArrow=none;html=1;rounded=0;fontFamily=Helvetica;fontSize=12;fontColor=default;movable=1;resizable=1;rotatable=1;deletable=1;editable=1;locked=0;connectable=1;exitX=0.343;exitY=0.998;exitDx=0;exitDy=0;exitPerimeter=0;" parent="PmK2E9ObwFfIMZQdWyZE-444" source="PmK2E9ObwFfIMZQdWyZE-323" edge="1">
          <mxGeometry width="50" height="50" relative="1" as="geometry">
            <mxPoint x="138.84000000000003" y="80" as="sourcePoint" />
            <mxPoint x="137.09000000000003" y="40" as="targetPoint" />
          </mxGeometry>
        </mxCell>
        <mxCell id="PmK2E9ObwFfIMZQdWyZE-460" value="" style="group" parent="WIyWlLk6GJQsqaUBKTNV-1" vertex="1" connectable="0">
          <mxGeometry x="227.45000000000005" y="1760" width="260" height="80" as="geometry" />
        </mxCell>
        <mxCell id="PmK2E9ObwFfIMZQdWyZE-461" value="" style="group;shadow=1;" parent="PmK2E9ObwFfIMZQdWyZE-460" vertex="1" connectable="0">
          <mxGeometry width="260" height="80" as="geometry" />
        </mxCell>
        <mxCell id="PmK2E9ObwFfIMZQdWyZE-462" value="" style="shape=hexagon;perimeter=hexagonPerimeter2;whiteSpace=wrap;html=1;fixedSize=1;size=20;" parent="PmK2E9ObwFfIMZQdWyZE-461" vertex="1">
          <mxGeometry width="260" height="80" as="geometry" />
        </mxCell>
        <mxCell id="PmK2E9ObwFfIMZQdWyZE-463" value="" style="endArrow=none;html=1;rounded=0;entryX=1;entryY=0.5;entryDx=0;entryDy=0;" parent="PmK2E9ObwFfIMZQdWyZE-461" target="PmK2E9ObwFfIMZQdWyZE-462" edge="1">
          <mxGeometry width="50" height="50" relative="1" as="geometry">
            <mxPoint y="39.860000000000014" as="sourcePoint" />
            <mxPoint x="173.33333333333331" y="39.860000000000014" as="targetPoint" />
          </mxGeometry>
        </mxCell>
        <mxCell id="PmK2E9ObwFfIMZQdWyZE-464" value="v_bimestre" style="text;strokeColor=none;align=center;fillColor=none;html=1;verticalAlign=middle;whiteSpace=wrap;rounded=0;fontSize=12;fontFamily=Helvetica;fontColor=default;" parent="PmK2E9ObwFfIMZQdWyZE-461" vertex="1">
          <mxGeometry x="108.33333333333333" y="40" width="86.66666666666666" height="30" as="geometry" />
        </mxCell>
        <mxCell id="PmK2E9ObwFfIMZQdWyZE-465" value="mostrarPuntoE" style="text;strokeColor=none;align=center;fillColor=none;html=1;verticalAlign=middle;whiteSpace=wrap;rounded=0;fontSize=12;fontFamily=Helvetica;fontColor=default;" parent="PmK2E9ObwFfIMZQdWyZE-461" vertex="1">
          <mxGeometry x="65" y="10" width="130" height="10" as="geometry" />
        </mxCell>
        <mxCell id="PmK2E9ObwFfIMZQdWyZE-466" value="" style="endArrow=none;html=1;rounded=0;fontFamily=Helvetica;fontSize=12;fontColor=default;exitX=0.375;exitY=1;exitDx=0;exitDy=0;movable=0;resizable=0;rotatable=0;deletable=0;editable=0;locked=1;connectable=0;" parent="PmK2E9ObwFfIMZQdWyZE-460" source="PmK2E9ObwFfIMZQdWyZE-462" edge="1">
          <mxGeometry width="50" height="50" relative="1" as="geometry">
            <mxPoint x="43.33333333333333" y="100" as="sourcePoint" />
            <mxPoint x="97.5" y="40" as="targetPoint" />
          </mxGeometry>
        </mxCell>
        <mxCell id="PmK2E9ObwFfIMZQdWyZE-467" style="edgeStyle=orthogonalEdgeStyle;rounded=0;orthogonalLoop=1;jettySize=auto;html=1;exitX=0.5;exitY=1;exitDx=0;exitDy=0;entryX=0.5;entryY=0;entryDx=0;entryDy=0;endArrow=none;endFill=0;" parent="WIyWlLk6GJQsqaUBKTNV-1" source="PmK2E9ObwFfIMZQdWyZE-462" target="PmK2E9ObwFfIMZQdWyZE-187" edge="1">
          <mxGeometry relative="1" as="geometry" />
        </mxCell>
        <mxCell id="PmK2E9ObwFfIMZQdWyZE-468" style="edgeStyle=orthogonalEdgeStyle;rounded=0;orthogonalLoop=1;jettySize=auto;html=1;exitX=0.5;exitY=1;exitDx=0;exitDy=0;entryX=0.536;entryY=0.005;entryDx=0;entryDy=0;entryPerimeter=0;endArrow=none;endFill=0;" parent="WIyWlLk6GJQsqaUBKTNV-1" source="PmK2E9ObwFfIMZQdWyZE-315" target="PmK2E9ObwFfIMZQdWyZE-47" edge="1">
          <mxGeometry relative="1" as="geometry" />
        </mxCell>
        <mxCell id="PmK2E9ObwFfIMZQdWyZE-469" style="edgeStyle=orthogonalEdgeStyle;rounded=0;orthogonalLoop=1;jettySize=auto;html=1;exitX=0.5;exitY=1;exitDx=0;exitDy=0;entryX=0.516;entryY=0.024;entryDx=0;entryDy=0;entryPerimeter=0;endArrow=none;endFill=0;" parent="WIyWlLk6GJQsqaUBKTNV-1" source="PmK2E9ObwFfIMZQdWyZE-313" target="PmK2E9ObwFfIMZQdWyZE-315" edge="1">
          <mxGeometry relative="1" as="geometry" />
        </mxCell>
        <mxCell id="PmK2E9ObwFfIMZQdWyZE-471" style="edgeStyle=orthogonalEdgeStyle;rounded=0;orthogonalLoop=1;jettySize=auto;html=1;exitX=0.5;exitY=1;exitDx=0;exitDy=0;entryX=0.5;entryY=0;entryDx=0;entryDy=0;endArrow=none;endFill=0;" parent="WIyWlLk6GJQsqaUBKTNV-1" source="PmK2E9ObwFfIMZQdWyZE-124" target="PmK2E9ObwFfIMZQdWyZE-196" edge="1">
          <mxGeometry relative="1" as="geometry" />
        </mxCell>
        <mxCell id="PmK2E9ObwFfIMZQdWyZE-472" style="edgeStyle=orthogonalEdgeStyle;rounded=0;orthogonalLoop=1;jettySize=auto;html=1;exitX=0.5;exitY=1;exitDx=0;exitDy=0;entryX=0.519;entryY=-0.008;entryDx=0;entryDy=0;entryPerimeter=0;endArrow=none;endFill=0;" parent="WIyWlLk6GJQsqaUBKTNV-1" source="PmK2E9ObwFfIMZQdWyZE-196" target="PmK2E9ObwFfIMZQdWyZE-198" edge="1">
          <mxGeometry relative="1" as="geometry" />
        </mxCell>
        <mxCell id="PmK2E9ObwFfIMZQdWyZE-473" style="edgeStyle=orthogonalEdgeStyle;rounded=0;orthogonalLoop=1;jettySize=auto;html=1;exitX=0.5;exitY=1;exitDx=0;exitDy=0;entryX=0.5;entryY=0;entryDx=0;entryDy=0;endArrow=none;endFill=0;" parent="WIyWlLk6GJQsqaUBKTNV-1" source="PmK2E9ObwFfIMZQdWyZE-198" target="PmK2E9ObwFfIMZQdWyZE-246" edge="1">
          <mxGeometry relative="1" as="geometry" />
        </mxCell>
        <mxCell id="PmK2E9ObwFfIMZQdWyZE-474" style="edgeStyle=orthogonalEdgeStyle;rounded=0;orthogonalLoop=1;jettySize=auto;html=1;exitX=0.5;exitY=1;exitDx=0;exitDy=0;entryX=0.457;entryY=0.033;entryDx=0;entryDy=0;entryPerimeter=0;endArrow=none;endFill=0;" parent="WIyWlLk6GJQsqaUBKTNV-1" source="PmK2E9ObwFfIMZQdWyZE-246" target="PmK2E9ObwFfIMZQdWyZE-248" edge="1">
          <mxGeometry relative="1" as="geometry" />
        </mxCell>
        <mxCell id="VH5k_VzyjM1Wn6yU5n_O-0" style="edgeStyle=orthogonalEdgeStyle;rounded=0;orthogonalLoop=1;jettySize=auto;html=1;exitX=0.5;exitY=1;exitDx=0;exitDy=0;entryX=0.5;entryY=0;entryDx=0;entryDy=0;endArrow=none;endFill=0;" edge="1" parent="WIyWlLk6GJQsqaUBKTNV-1" source="VH5k_VzyjM1Wn6yU5n_O-1" target="VH5k_VzyjM1Wn6yU5n_O-3">
          <mxGeometry relative="1" as="geometry" />
        </mxCell>
        <mxCell id="VH5k_VzyjM1Wn6yU5n_O-1" value="float v_ventaMax[8]" style="whiteSpace=wrap;html=1;" vertex="1" parent="WIyWlLk6GJQsqaUBKTNV-1">
          <mxGeometry x="227.5" y="550" width="270" height="40" as="geometry" />
        </mxCell>
        <mxCell id="VH5k_VzyjM1Wn6yU5n_O-2" value="" style="group;shadow=1;align=center;verticalAlign=middle;horizontal=1;" vertex="1" connectable="0" parent="WIyWlLk6GJQsqaUBKTNV-1">
          <mxGeometry x="231.30999999999995" y="620" width="260" height="80" as="geometry" />
        </mxCell>
        <mxCell id="VH5k_VzyjM1Wn6yU5n_O-3" value="" style="shape=hexagon;perimeter=hexagonPerimeter2;whiteSpace=wrap;html=1;fixedSize=1;size=20;align=center;verticalAlign=middle;horizontal=1;" vertex="1" parent="VH5k_VzyjM1Wn6yU5n_O-2">
          <mxGeometry width="260" height="80" as="geometry" />
        </mxCell>
        <mxCell id="VH5k_VzyjM1Wn6yU5n_O-4" value="" style="endArrow=none;html=1;rounded=0;entryX=1;entryY=0.5;entryDx=0;entryDy=0;align=center;verticalAlign=middle;horizontal=1;" edge="1" parent="VH5k_VzyjM1Wn6yU5n_O-2" target="VH5k_VzyjM1Wn6yU5n_O-3">
          <mxGeometry width="50" height="50" relative="1" as="geometry">
            <mxPoint y="39.860000000000014" as="sourcePoint" />
            <mxPoint x="173.33333333333331" y="39.860000000000014" as="targetPoint" />
          </mxGeometry>
        </mxCell>
        <mxCell id="VH5k_VzyjM1Wn6yU5n_O-5" value="8" style="text;strokeColor=none;align=center;fillColor=none;html=1;verticalAlign=middle;whiteSpace=wrap;rounded=0;fontSize=12;fontFamily=Helvetica;fontColor=default;horizontal=1;" vertex="1" parent="VH5k_VzyjM1Wn6yU5n_O-2">
          <mxGeometry x="21.666666666666664" y="40" width="86.66666666666666" height="30" as="geometry" />
        </mxCell>
        <mxCell id="VH5k_VzyjM1Wn6yU5n_O-6" value="v_ventaMax" style="text;strokeColor=none;align=center;fillColor=none;html=1;verticalAlign=middle;whiteSpace=wrap;rounded=0;fontSize=12;fontFamily=Helvetica;fontColor=default;horizontal=1;" vertex="1" parent="VH5k_VzyjM1Wn6yU5n_O-2">
          <mxGeometry x="127.50333333333333" y="40" width="86.66666666666666" height="30" as="geometry" />
        </mxCell>
        <mxCell id="VH5k_VzyjM1Wn6yU5n_O-7" value="inicializarCero" style="text;strokeColor=none;align=center;fillColor=none;html=1;verticalAlign=middle;whiteSpace=wrap;rounded=0;fontSize=12;fontFamily=Helvetica;fontColor=default;horizontal=1;" vertex="1" parent="VH5k_VzyjM1Wn6yU5n_O-2">
          <mxGeometry x="65" y="10" width="130" height="10" as="geometry" />
        </mxCell>
        <mxCell id="VH5k_VzyjM1Wn6yU5n_O-8" value="" style="endArrow=none;html=1;rounded=0;exitX=0.415;exitY=0.995;exitDx=0;exitDy=0;exitPerimeter=0;align=center;verticalAlign=middle;horizontal=1;" edge="1" parent="VH5k_VzyjM1Wn6yU5n_O-2" source="VH5k_VzyjM1Wn6yU5n_O-3">
          <mxGeometry width="50" height="50" relative="1" as="geometry">
            <mxPoint x="125.16000000000003" y="60" as="sourcePoint" />
            <mxPoint x="108.32952380952389" y="40" as="targetPoint" />
          </mxGeometry>
        </mxCell>
        <mxCell id="VH5k_VzyjM1Wn6yU5n_O-9" style="edgeStyle=orthogonalEdgeStyle;rounded=0;orthogonalLoop=1;jettySize=auto;html=1;exitX=0.5;exitY=1;exitDx=0;exitDy=0;endArrow=none;endFill=0;" edge="1" parent="WIyWlLk6GJQsqaUBKTNV-1" source="PmK2E9ObwFfIMZQdWyZE-248">
          <mxGeometry relative="1" as="geometry">
            <mxPoint x="360" y="550" as="targetPoint" />
            <Array as="points">
              <mxPoint x="360" y="530" />
              <mxPoint x="360" y="549" />
            </Array>
          </mxGeometry>
        </mxCell>
        <mxCell id="VH5k_VzyjM1Wn6yU5n_O-10" style="edgeStyle=orthogonalEdgeStyle;rounded=0;orthogonalLoop=1;jettySize=auto;html=1;exitX=0.5;exitY=1;exitDx=0;exitDy=0;entryX=0.5;entryY=0;entryDx=0;entryDy=0;endArrow=none;endFill=0;" edge="1" parent="WIyWlLk6GJQsqaUBKTNV-1" source="VH5k_VzyjM1Wn6yU5n_O-3" target="PmK2E9ObwFfIMZQdWyZE-313">
          <mxGeometry relative="1" as="geometry" />
        </mxCell>
      </root>
    </mxGraphModel>
  </diagram>
</mxfile>
